<svg width="512" height="512" viewBox="0 0 512 512" fill="none" xmlns="http://www.w3.org/2000/svg">
<rect x="22.9277" y="108.023" width="469.627" height="364.638" fill="#E6E7E8"/>
<path d="M108.725 36.9026C226.643 36.9026 343.997 36.9018 461.351 36.9034C482.018 36.9036 492.548 47.4474 492.554 68.1326C492.556 75.6076 492.554 83.0826 492.554 90.8184C335.874 90.8184 179.693 90.8184 23.1319 90.8184C23.1319 80.5457 22.3976 70.3861 23.312 60.3771C24.5418 46.916 36.2918 37.048 50.0477 36.9434C69.4175 36.796 88.7893 36.9039 108.725 36.9026ZM113.241 60.1889C113.241 64.3948 113.241 68.6007 113.241 72.6233C119.729 72.6233 125.41 72.6233 130.895 72.6233C130.895 66.5309 130.895 60.8518 130.895 54.9661C126.024 54.9661 121.544 55.1776 117.095 54.8973C113.702 54.6835 112.822 56.1462 113.241 60.1889ZM77.1181 58.0255C77.1181 62.9741 77.1181 67.9228 77.1181 72.5956C83.6617 72.5956 89.3461 72.5956 94.7419 72.5956C94.7419 66.4726 94.7419 60.7878 94.7419 54.9674C89.6464 54.9674 84.9801 54.8453 80.3292 55.0578C79.2379 55.1076 78.1983 56.2886 77.1181 58.0255ZM44.0472 54.9678C43.0337 55.6917 41.1813 56.3733 41.1424 57.1463C40.8817 62.326 41.0068 67.5253 41.0068 72.6164C47.4251 72.6164 53.1397 72.6164 58.7875 72.6164C58.7875 66.624 58.7875 61.0448 58.7875 54.9654C54.0704 54.9654 49.6022 54.9654 44.0472 54.9678Z" fill="#648CD3"/>
<path d="M194.505 289.993C182.358 290.118 172.227 286.228 166.492 274.824C161.599 265.095 163.044 255.635 168.669 246.477C189.198 213.056 209.619 179.57 230.078 146.107C231.449 143.866 232.76 141.588 234.179 139.379C245.901 121.117 269.679 121.017 281.248 139.342C289.563 152.512 297.497 165.921 305.618 179.213C319.118 201.314 332.806 223.303 346.004 245.583C348.877 250.434 350.014 256.314 351.922 262.627C350.099 280.334 339.624 289.724 322.576 289.777C314.112 289.803 305.648 289.768 297.184 289.784C262.958 289.849 228.731 289.923 194.505 289.993ZM201.547 227.401C195.581 237.183 189.516 246.906 183.68 256.765C179.142 264.432 182.943 271.642 191.661 271.662C235.67 271.762 279.678 271.755 323.687 271.668C332.209 271.651 336.121 264.772 332.148 257.328C331.618 256.336 330.979 255.401 330.392 254.44C309.337 219.982 288.29 185.519 267.221 151.069C261.104 141.065 254.328 141.123 248.142 151.234C232.752 176.389 217.39 201.561 201.547 227.401Z" fill="#030202"/>
<path d="M222.733 335.181C228.815 316.847 243.083 306.706 260.508 307.92C276.841 309.058 291.109 321.067 293.005 337.969C294.5 351.294 294.503 365.136 292.659 378.4C290.125 396.633 272.825 408.634 254.593 407.083C236.337 405.53 221.827 390.188 221.703 371.67C221.622 359.665 222.313 347.655 222.733 335.181ZM250.199 387.409C264.26 392.306 275.701 384.313 275.794 369.481C275.846 361.217 275.88 352.95 275.783 344.686C275.655 333.836 267.773 325.802 257.522 325.915C247.465 326.025 239.827 333.926 239.701 344.529C239.6 352.981 239.732 361.435 239.664 369.888C239.603 377.521 242.717 383.263 250.199 387.409Z" fill="#020202"/>
<path d="M326.492 318.927C327.835 314.2 329.087 309.922 330.42 305.366C336.184 307.017 341.556 308.556 347.644 310.3C342.763 327.545 337.948 344.558 333.054 361.853C338.201 361.853 342.842 361.853 347.947 361.853C347.947 349.947 347.947 338.202 347.947 326.183C354.125 326.183 359.845 326.183 366.034 326.183C366.034 338.004 366.034 349.749 366.034 361.954C372.209 361.954 377.942 361.954 383.92 361.954C383.92 368.14 383.92 373.86 383.92 380.052C378.062 380.052 372.328 380.052 366.146 380.052C366.146 389.244 366.146 397.983 366.146 406.948C359.96 406.948 354.24 406.948 348.052 406.948C348.052 398.012 348.052 389.273 348.052 380.094C339.371 380.094 331.148 380.145 322.926 380.08C314.243 380.011 310.508 375.222 312.825 366.968C317.283 351.085 321.869 335.237 326.492 318.927Z" fill="#010101"/>
<path d="M153.042 359.303C153.566 360.522 154.194 361.884 154.892 361.922C158.816 362.132 162.756 362.023 167.148 362.023C167.148 350.127 167.148 338.382 167.148 326.271C173.316 326.271 179.038 326.271 185.227 326.271C185.227 337.817 185.227 349.56 185.227 361.767C191.396 361.767 197.122 361.767 203.2 361.767C203.2 367.945 203.2 373.667 203.2 379.86C197.629 379.86 191.902 379.86 185.715 379.86C185.715 389.042 185.715 397.779 185.715 406.849C179.539 406.849 173.82 406.849 167.628 406.849C167.628 398.218 167.628 389.481 167.628 380.094C158.984 380.094 150.788 380.133 142.593 380.083C133.574 380.029 129.861 375.278 132.273 366.704C137.998 346.353 143.821 326.03 149.702 305.354C155.5 307.005 160.867 308.533 167.058 310.296C162.392 326.615 157.785 342.725 153.042 359.303Z" fill="#010101"/>
<path d="M113.241 59.6492C112.823 56.1467 113.702 54.684 117.095 54.8978C121.544 55.1781 126.024 54.9666 130.896 54.9666C130.896 60.8522 130.896 66.5314 130.896 72.6238C125.41 72.6238 119.73 72.6238 113.241 72.6238C113.241 68.6012 113.241 64.3953 113.241 59.6492Z" fill="black"/>
<path d="M77.1266 57.4875C78.1984 56.2887 79.238 55.1077 80.3293 55.0579C84.9802 54.8454 89.6465 54.9675 94.742 54.9675C94.742 60.7879 94.742 66.4727 94.742 72.5957C89.3462 72.5957 83.6618 72.5957 77.1182 72.5957C77.1182 67.9229 77.1182 62.9742 77.1266 57.4875Z" fill="black"/>
<path d="M44.591 54.9665C49.6026 54.9653 54.0709 54.9653 58.7879 54.9653C58.7879 61.0447 58.7879 66.6239 58.7879 72.6163C53.1402 72.6163 47.4256 72.6163 41.0073 72.6163C41.0073 67.5252 40.8821 62.3259 41.1429 57.1462C41.1818 56.3732 43.0342 55.6916 44.591 54.9665Z" fill="black"/>
<path d="M201.781 227.063C217.39 201.561 232.751 176.389 248.142 151.234C254.328 141.123 261.103 141.065 267.221 151.069C288.289 185.519 309.336 219.982 330.391 254.44C330.979 255.401 331.618 256.336 332.147 257.328C336.121 264.772 332.209 271.651 323.686 271.668C279.678 271.755 235.669 271.762 191.661 271.662C182.943 271.642 179.142 264.432 183.68 256.765C189.516 246.906 195.58 237.183 201.781 227.063ZM266.77 210.091C266.77 194.603 266.77 179.115 266.77 163.719C260.356 163.719 254.654 163.719 249.07 163.719C249.07 181.814 249.07 199.53 249.07 217.143C255.136 217.143 260.838 217.143 266.77 217.143C266.77 214.907 266.77 213.048 266.77 210.091ZM266.77 242.981C266.77 240.624 266.77 238.268 266.77 235.931C260.404 235.931 254.717 235.931 249.052 235.931C249.052 241.961 249.052 247.649 249.052 253.308C255.085 253.308 260.773 253.308 266.378 253.308C266.553 252.621 266.714 252.275 266.719 251.927C266.753 249.311 266.757 246.695 266.77 242.981Z" fill="#FEA633"/>
<path d="M266.77 210.641C266.77 213.049 266.77 214.908 266.77 217.144C260.838 217.144 255.136 217.144 249.07 217.144C249.07 199.531 249.07 181.815 249.07 163.72C254.654 163.72 260.356 163.72 266.77 163.72C266.77 179.116 266.77 194.604 266.77 210.641Z" fill="black"/>
<path d="M266.77 243.531C266.757 246.696 266.753 249.312 266.719 251.928C266.714 252.276 266.553 252.622 266.377 253.309C260.773 253.309 255.085 253.309 249.052 253.309C249.052 247.65 249.052 241.962 249.052 235.932C254.717 235.932 260.403 235.932 266.77 235.932C266.77 238.269 266.77 240.625 266.77 243.531Z" fill="black"/>
<path d="M13.8964 99.5569H500.457M13.8964 99.5569V442.746C13.7082 455.164 20.8956 480 51.1505 480C81.4053 480 248.145 480 327.734 480H473.928C482.771 479.812 500.457 474.243 500.457 453.471C500.457 432.699 500.457 437.666 500.457 442.746V99.5569M13.8964 99.5569V61.174C14.0845 50.4493 21.7988 29 51.1505 29C80.5022 29 340.716 29 467.154 29C478.067 29.1882 499.893 35.9992 499.893 61.7384C499.893 87.4776 500.269 97.6754 500.457 99.5569" stroke="black" stroke-width="19.1915"/>
</svg>
