<svg width="229" height="120" viewBox="0 0 229 120" fill="none" xmlns="http://www.w3.org/2000/svg">
<g clip-path="url(#clip0_1175_5209)">
<pattern id="dots" x="10" y="5" width="12" height="12" patternUnits="userSpaceOnUse" patternTransform="translate(-1,-1)"><circle cx="1" cy="1" r="0.7" fill="#adadb7"></circle></pattern>
<rect width="229" height="120" fill="#F9FAFB"/>
<rect width="229" height="120" fill="url(#dots)"/>
<rect x="16.5" y="45.5" width="66" height="23" rx="4.5" fill="white"/>
<path d="M39.4716 56.0739H38.5852C38.5511 55.8845 38.4877 55.7178 38.3949 55.5739C38.3021 55.4299 38.1884 55.3078 38.054 55.2074C37.9195 55.107 37.7689 55.0312 37.6023 54.9801C37.4375 54.929 37.2623 54.9034 37.0767 54.9034C36.7415 54.9034 36.4413 54.9877 36.1761 55.1562C35.9129 55.3248 35.7045 55.572 35.5511 55.8977C35.3996 56.2235 35.3239 56.6212 35.3239 57.0909C35.3239 57.5644 35.3996 57.964 35.5511 58.2898C35.7045 58.6155 35.9138 58.8617 36.179 59.0284C36.4441 59.1951 36.7424 59.2784 37.0739 59.2784C37.2576 59.2784 37.4318 59.2538 37.5966 59.2045C37.7633 59.1534 37.9138 59.0786 38.0483 58.9801C38.1828 58.8816 38.2964 58.7614 38.3892 58.6193C38.4839 58.4754 38.5492 58.3106 38.5852 58.125L39.4716 58.1278C39.4242 58.4138 39.3324 58.6771 39.196 58.9176C39.0616 59.1562 38.8883 59.3627 38.6761 59.5369C38.4659 59.7093 38.2254 59.8428 37.9545 59.9375C37.6837 60.0322 37.3883 60.0795 37.0682 60.0795C36.5644 60.0795 36.1155 59.9602 35.7216 59.7216C35.3277 59.4811 35.017 59.1373 34.7898 58.6903C34.5644 58.2434 34.4517 57.7102 34.4517 57.0909C34.4517 56.4697 34.5653 55.9366 34.7926 55.4915C35.0199 55.0445 35.3305 54.7017 35.7244 54.4631C36.1184 54.2225 36.5663 54.1023 37.0682 54.1023C37.3769 54.1023 37.6648 54.1468 37.9318 54.2358C38.2008 54.3229 38.4422 54.4517 38.6562 54.6222C38.8703 54.7907 39.0473 54.9972 39.1875 55.2415C39.3277 55.4839 39.4223 55.7614 39.4716 56.0739ZM42.2919 60.0881C41.8828 60.0881 41.5258 59.9943 41.2209 59.8068C40.916 59.6193 40.6792 59.357 40.5107 59.0199C40.3421 58.6828 40.2578 58.2888 40.2578 57.8381C40.2578 57.3854 40.3421 56.9896 40.5107 56.6506C40.6792 56.3116 40.916 56.0483 41.2209 55.8608C41.5258 55.6733 41.8828 55.5795 42.2919 55.5795C42.701 55.5795 43.058 55.6733 43.3629 55.8608C43.6679 56.0483 43.9046 56.3116 44.0732 56.6506C44.2417 56.9896 44.326 57.3854 44.326 57.8381C44.326 58.2888 44.2417 58.6828 44.0732 59.0199C43.9046 59.357 43.6679 59.6193 43.3629 59.8068C43.058 59.9943 42.701 60.0881 42.2919 60.0881ZM42.2947 59.375C42.5599 59.375 42.7796 59.3049 42.9538 59.1648C43.1281 59.0246 43.2569 58.8381 43.3402 58.6051C43.4254 58.3722 43.468 58.1155 43.468 57.8352C43.468 57.5568 43.4254 57.3011 43.3402 57.0682C43.2569 56.8333 43.1281 56.6449 42.9538 56.5028C42.7796 56.3608 42.5599 56.2898 42.2947 56.2898C42.0277 56.2898 41.8061 56.3608 41.63 56.5028C41.4557 56.6449 41.326 56.8333 41.2408 57.0682C41.1574 57.3011 41.1158 57.5568 41.1158 57.8352C41.1158 58.1155 41.1574 58.3722 41.2408 58.6051C41.326 58.8381 41.4557 59.0246 41.63 59.1648C41.8061 59.3049 42.0277 59.375 42.2947 59.375ZM45.2741 60V55.6364H46.0895V56.3466H46.1435C46.2344 56.1061 46.383 55.9186 46.5895 55.7841C46.7959 55.6477 47.0431 55.5795 47.331 55.5795C47.6226 55.5795 47.867 55.6477 48.0639 55.7841C48.2628 55.9205 48.4096 56.108 48.5043 56.3466H48.5497C48.6539 56.1136 48.8196 55.928 49.0469 55.7898C49.2741 55.6496 49.545 55.5795 49.8594 55.5795C50.2552 55.5795 50.5781 55.7036 50.8281 55.9517C51.08 56.1998 51.206 56.5739 51.206 57.0739V60H50.3565V57.1534C50.3565 56.858 50.276 56.6439 50.1151 56.5114C49.9541 56.3788 49.7618 56.3125 49.5384 56.3125C49.2618 56.3125 49.0469 56.3977 48.8935 56.5682C48.7401 56.7367 48.6634 56.9536 48.6634 57.2188V60H47.8168V57.0994C47.8168 56.8627 47.7429 56.6723 47.5952 56.5284C47.4474 56.3845 47.2552 56.3125 47.0185 56.3125C46.8575 56.3125 46.7088 56.3551 46.5724 56.4403C46.438 56.5237 46.3291 56.6402 46.2457 56.7898C46.1643 56.9394 46.1236 57.1127 46.1236 57.3097V60H45.2741ZM52.3445 61.6364V55.6364H53.174V56.3438H53.245C53.2943 56.2528 53.3653 56.1477 53.4581 56.0284C53.5509 55.9091 53.6797 55.8049 53.8445 55.7159C54.0092 55.625 54.227 55.5795 54.4979 55.5795C54.8501 55.5795 55.1645 55.6686 55.4411 55.8466C55.7176 56.0246 55.9344 56.2812 56.0916 56.6165C56.2507 56.9517 56.3303 57.3551 56.3303 57.8267C56.3303 58.2983 56.2517 58.7027 56.0945 59.0398C55.9373 59.375 55.7214 59.6335 55.4467 59.8153C55.1721 59.9953 54.8587 60.0852 54.5064 60.0852C54.2412 60.0852 54.0244 60.0407 53.8558 59.9517C53.6892 59.8627 53.5585 59.7585 53.4638 59.6392C53.3691 59.5199 53.2962 59.4138 53.245 59.321H53.1939V61.6364H52.3445ZM53.1768 57.8182C53.1768 58.125 53.2214 58.3939 53.3104 58.625C53.3994 58.8561 53.5282 59.0369 53.6967 59.1676C53.8653 59.2964 54.0717 59.3608 54.3161 59.3608C54.5698 59.3608 54.782 59.2936 54.9524 59.1591C55.1229 59.0227 55.2517 58.8381 55.3388 58.6051C55.4278 58.3722 55.4723 58.1098 55.4723 57.8182C55.4723 57.5303 55.4287 57.2718 55.3416 57.0426C55.2564 56.8134 55.1276 56.6326 54.9553 56.5C54.7848 56.3674 54.5717 56.3011 54.3161 56.3011C54.0698 56.3011 53.8615 56.3646 53.6911 56.4915C53.5225 56.6184 53.3946 56.7955 53.3075 57.0227C53.2204 57.25 53.1768 57.5152 53.1768 57.8182ZM57.282 60V55.6364H58.1314V60H57.282ZM57.7109 54.9631C57.5632 54.9631 57.4363 54.9138 57.3303 54.8153C57.2261 54.715 57.174 54.5956 57.174 54.4574C57.174 54.3172 57.2261 54.1979 57.3303 54.0994C57.4363 53.9991 57.5632 53.9489 57.7109 53.9489C57.8587 53.9489 57.9846 53.9991 58.0888 54.0994C58.1948 54.1979 58.2479 54.3172 58.2479 54.4574C58.2479 54.5956 58.1948 54.715 58.0888 54.8153C57.9846 54.9138 57.8587 54.9631 57.7109 54.9631ZM60.1236 54.1818V60H59.2741V54.1818H60.1236ZM63.147 60.0881C62.7171 60.0881 62.3468 59.9962 62.0362 59.8125C61.7275 59.6269 61.4889 59.3665 61.3203 59.0312C61.1536 58.6941 61.0703 58.2992 61.0703 57.8466C61.0703 57.3996 61.1536 57.0057 61.3203 56.6648C61.4889 56.3239 61.7237 56.0578 62.0249 55.8665C62.3279 55.6752 62.6821 55.5795 63.0874 55.5795C63.3336 55.5795 63.5722 55.6203 63.8033 55.7017C64.0343 55.7831 64.2417 55.911 64.4254 56.0852C64.6091 56.2595 64.754 56.4858 64.8601 56.7642C64.9661 57.0407 65.0192 57.3769 65.0192 57.7727V58.0739H61.5504V57.4375H64.1868C64.1868 57.214 64.1413 57.0161 64.0504 56.8438C63.9595 56.6695 63.8317 56.5322 63.6669 56.4318C63.504 56.3314 63.3127 56.2812 63.093 56.2812C62.8544 56.2812 62.6461 56.34 62.468 56.4574C62.2919 56.5729 62.1555 56.7244 62.0589 56.9119C61.9643 57.0975 61.9169 57.2992 61.9169 57.517V58.0142C61.9169 58.3059 61.968 58.554 62.0703 58.7585C62.1745 58.9631 62.3194 59.1193 62.505 59.2273C62.6906 59.3333 62.9074 59.3864 63.1555 59.3864C63.3165 59.3864 63.4633 59.3636 63.5959 59.3182C63.7285 59.2708 63.843 59.2008 63.9396 59.108C64.0362 59.0152 64.1101 58.9006 64.1612 58.7642L64.9652 58.9091C64.9008 59.1458 64.7853 59.3532 64.6186 59.5312C64.4538 59.7074 64.2464 59.8447 63.9964 59.9432C63.7483 60.0398 63.4652 60.0881 63.147 60.0881Z" fill="black"/>
<rect x="16.5" y="45.5" width="66" height="23" rx="4.5" stroke="#A7ADB9"/>
<circle cx="16" cy="57" r="3.25" fill="#234580" stroke="white" stroke-width="1.5"/>
<circle cx="83" cy="57" r="3.25" fill="#234580" stroke="white" stroke-width="1.5"/>
<rect x="123.5" y="45.5" width="87" height="23" rx="4.5" fill="#DBEAFE"/>
<path d="M137.812 55.7102C137.782 55.4413 137.657 55.233 137.438 55.0852C137.218 54.9356 136.941 54.8608 136.608 54.8608C136.369 54.8608 136.163 54.8987 135.989 54.9744C135.814 55.0483 135.679 55.1506 135.582 55.2812C135.488 55.41 135.44 55.5568 135.44 55.7216C135.44 55.8598 135.473 55.9792 135.537 56.0795C135.603 56.1799 135.689 56.2642 135.795 56.3324C135.903 56.3987 136.019 56.4545 136.142 56.5C136.265 56.5436 136.384 56.5795 136.497 56.608L137.065 56.7557C137.251 56.8011 137.441 56.8627 137.636 56.9403C137.831 57.018 138.012 57.1203 138.179 57.2472C138.346 57.3741 138.48 57.5312 138.582 57.7188C138.687 57.9062 138.739 58.1307 138.739 58.392C138.739 58.7216 138.653 59.0142 138.483 59.2699C138.314 59.5256 138.069 59.7273 137.747 59.875C137.427 60.0227 137.04 60.0966 136.585 60.0966C136.15 60.0966 135.773 60.0275 135.455 59.8892C135.136 59.7509 134.887 59.5549 134.707 59.3011C134.527 59.0455 134.428 58.7424 134.409 58.392H135.29C135.307 58.6023 135.375 58.7775 135.494 58.9176C135.616 59.0559 135.77 59.1591 135.957 59.2273C136.147 59.2936 136.354 59.3267 136.58 59.3267C136.828 59.3267 137.048 59.2879 137.241 59.2102C137.437 59.1307 137.59 59.0208 137.702 58.8807C137.813 58.7386 137.869 58.5729 137.869 58.3835C137.869 58.2112 137.82 58.0701 137.722 57.9602C137.625 57.8504 137.493 57.7595 137.327 57.6875C137.162 57.6155 136.975 57.5521 136.767 57.4972L136.08 57.3097C135.614 57.1828 135.244 56.9962 134.972 56.75C134.701 56.5038 134.565 56.178 134.565 55.7727C134.565 55.4375 134.656 55.1449 134.838 54.8949C135.02 54.6449 135.266 54.4508 135.577 54.3125C135.887 54.1723 136.238 54.1023 136.628 54.1023C137.022 54.1023 137.369 54.1714 137.67 54.3097C137.973 54.4479 138.212 54.6383 138.386 54.8807C138.561 55.1212 138.652 55.3977 138.659 55.7102H137.812ZM141.756 55.6364V56.3182H139.373V55.6364H141.756ZM140.012 54.5909H140.862V58.7188C140.862 58.8835 140.886 59.0076 140.935 59.0909C140.985 59.1723 141.048 59.2282 141.126 59.2585C141.205 59.2869 141.291 59.3011 141.384 59.3011C141.452 59.3011 141.512 59.2964 141.563 59.2869C141.614 59.2775 141.654 59.2699 141.683 59.2642L141.836 59.9659C141.787 59.9848 141.717 60.0038 141.626 60.0227C141.535 60.0436 141.421 60.0549 141.285 60.0568C141.061 60.0606 140.853 60.0208 140.66 59.9375C140.467 59.8542 140.31 59.7254 140.191 59.5511C140.072 59.3769 140.012 59.1581 140.012 58.8949V54.5909ZM143.966 60.0966C143.689 60.0966 143.439 60.0455 143.216 59.9432C142.992 59.839 142.815 59.6884 142.685 59.4915C142.556 59.2945 142.491 59.053 142.491 58.767C142.491 58.5208 142.539 58.3182 142.634 58.1591C142.728 58 142.856 57.8741 143.017 57.7812C143.178 57.6884 143.358 57.6184 143.557 57.571C143.756 57.5237 143.958 57.4877 144.165 57.4631C144.426 57.4328 144.638 57.4081 144.801 57.3892C144.964 57.3684 145.082 57.3352 145.156 57.2898C145.23 57.2443 145.267 57.1705 145.267 57.0682V57.0483C145.267 56.8002 145.197 56.608 145.057 56.4716C144.919 56.3352 144.712 56.267 144.438 56.267C144.152 56.267 143.926 56.3305 143.761 56.4574C143.598 56.5824 143.486 56.7216 143.423 56.875L142.625 56.6932C142.72 56.428 142.858 56.214 143.04 56.0511C143.223 55.8864 143.435 55.767 143.673 55.6932C143.912 55.6174 144.163 55.5795 144.426 55.5795C144.6 55.5795 144.785 55.6004 144.98 55.642C145.177 55.6818 145.361 55.7557 145.531 55.8636C145.704 55.9716 145.845 56.1259 145.955 56.3267C146.064 56.5256 146.119 56.7841 146.119 57.1023V60H145.29V59.4034H145.256C145.201 59.5133 145.118 59.6212 145.009 59.7273C144.899 59.8333 144.758 59.9214 144.585 59.9915C144.413 60.0616 144.206 60.0966 143.966 60.0966ZM144.151 59.4148C144.385 59.4148 144.586 59.3684 144.753 59.2756C144.921 59.1828 145.049 59.0616 145.136 58.9119C145.225 58.7604 145.27 58.5985 145.27 58.4261V57.8636C145.24 57.8939 145.181 57.9223 145.094 57.9489C145.009 57.9735 144.911 57.9953 144.801 58.0142C144.691 58.0312 144.584 58.0473 144.48 58.0625C144.376 58.0758 144.289 58.0871 144.219 58.0966C144.054 58.1174 143.903 58.1525 143.767 58.2017C143.633 58.2509 143.525 58.322 143.443 58.4148C143.364 58.5057 143.324 58.6269 143.324 58.7784C143.324 58.9886 143.402 59.1477 143.557 59.2557C143.712 59.3617 143.91 59.4148 144.151 59.4148ZM148.1 57.4091V60H147.251V55.6364H148.066V56.3466H148.12C148.22 56.1155 148.378 55.9299 148.592 55.7898C148.808 55.6496 149.079 55.5795 149.407 55.5795C149.704 55.5795 149.965 55.642 150.188 55.767C150.412 55.8902 150.585 56.0739 150.708 56.3182C150.831 56.5625 150.893 56.8646 150.893 57.2244V60H150.043V57.3267C150.043 57.0104 149.961 56.7633 149.796 56.5852C149.631 56.4053 149.405 56.3153 149.117 56.3153C148.92 56.3153 148.745 56.358 148.592 56.4432C148.44 56.5284 148.32 56.6534 148.231 56.8182C148.144 56.9811 148.1 57.178 148.1 57.4091ZM153.665 60.0852C153.313 60.0852 152.999 59.9953 152.722 59.8153C152.448 59.6335 152.232 59.375 152.075 59.0398C151.919 58.7027 151.842 58.2983 151.842 57.8267C151.842 57.3551 151.92 56.9517 152.077 56.6165C152.237 56.2812 152.454 56.0246 152.731 55.8466C153.007 55.6686 153.321 55.5795 153.671 55.5795C153.942 55.5795 154.16 55.625 154.325 55.7159C154.491 55.8049 154.62 55.9091 154.711 56.0284C154.804 56.1477 154.876 56.2528 154.927 56.3438H154.978V54.1818H155.827V60H154.998V59.321H154.927C154.876 59.4138 154.802 59.5199 154.705 59.6392C154.611 59.7585 154.48 59.8627 154.313 59.9517C154.147 60.0407 153.931 60.0852 153.665 60.0852ZM153.853 59.3608C154.097 59.3608 154.304 59.2964 154.472 59.1676C154.643 59.0369 154.772 58.8561 154.859 58.625C154.948 58.3939 154.992 58.125 154.992 57.8182C154.992 57.5152 154.949 57.25 154.862 57.0227C154.774 56.7955 154.647 56.6184 154.478 56.4915C154.309 56.3646 154.101 56.3011 153.853 56.3011C153.597 56.3011 153.384 56.3674 153.214 56.5C153.043 56.6326 152.915 56.8134 152.827 57.0426C152.742 57.2718 152.7 57.5303 152.7 57.8182C152.7 58.1098 152.743 58.3722 152.83 58.6051C152.917 58.8381 153.046 59.0227 153.217 59.1591C153.389 59.2936 153.601 59.3608 153.853 59.3608ZM158.31 60.0966C158.033 60.0966 157.783 60.0455 157.56 59.9432C157.336 59.839 157.159 59.6884 157.028 59.4915C156.9 59.2945 156.835 59.053 156.835 58.767C156.835 58.5208 156.883 58.3182 156.977 58.1591C157.072 58 157.2 57.8741 157.361 57.7812C157.522 57.6884 157.702 57.6184 157.901 57.571C158.099 57.5237 158.302 57.4877 158.509 57.4631C158.77 57.4328 158.982 57.4081 159.145 57.3892C159.308 57.3684 159.426 57.3352 159.5 57.2898C159.574 57.2443 159.611 57.1705 159.611 57.0682V57.0483C159.611 56.8002 159.541 56.608 159.401 56.4716C159.262 56.3352 159.056 56.267 158.781 56.267C158.495 56.267 158.27 56.3305 158.105 56.4574C157.942 56.5824 157.83 56.7216 157.767 56.875L156.969 56.6932C157.063 56.428 157.202 56.214 157.384 56.0511C157.567 55.8864 157.778 55.767 158.017 55.6932C158.256 55.6174 158.507 55.5795 158.77 55.5795C158.944 55.5795 159.129 55.6004 159.324 55.642C159.521 55.6818 159.705 55.7557 159.875 55.8636C160.047 55.9716 160.188 56.1259 160.298 56.3267C160.408 56.5256 160.463 56.7841 160.463 57.1023V60H159.634V59.4034H159.599C159.545 59.5133 159.462 59.6212 159.352 59.7273C159.242 59.8333 159.101 59.9214 158.929 59.9915C158.757 60.0616 158.55 60.0966 158.31 60.0966ZM158.494 59.4148C158.729 59.4148 158.93 59.3684 159.097 59.2756C159.265 59.1828 159.393 59.0616 159.48 58.9119C159.569 58.7604 159.614 58.5985 159.614 58.4261V57.8636C159.583 57.8939 159.525 57.9223 159.438 57.9489C159.352 57.9735 159.255 57.9953 159.145 58.0142C159.035 58.0312 158.928 58.0473 158.824 58.0625C158.72 58.0758 158.633 58.0871 158.562 58.0966C158.398 58.1174 158.247 58.1525 158.111 58.2017C157.976 58.2509 157.868 58.322 157.787 58.4148C157.707 58.5057 157.668 58.6269 157.668 58.7784C157.668 58.9886 157.745 59.1477 157.901 59.2557C158.056 59.3617 158.254 59.4148 158.494 59.4148ZM161.594 60V55.6364H162.415V56.3295H162.461C162.54 56.0947 162.681 55.91 162.881 55.7756C163.084 55.6392 163.313 55.571 163.569 55.571C163.622 55.571 163.684 55.5729 163.756 55.5767C163.83 55.5805 163.888 55.5852 163.93 55.5909V56.4034C163.896 56.3939 163.835 56.3835 163.748 56.3722C163.661 56.3589 163.574 56.3523 163.487 56.3523C163.286 56.3523 163.107 56.3949 162.95 56.4801C162.794 56.5634 162.671 56.6799 162.58 56.8295C162.489 56.9773 162.444 57.1458 162.444 57.3352V60H161.594ZM166.142 60.0852C165.79 60.0852 165.475 59.9953 165.199 59.8153C164.924 59.6335 164.708 59.375 164.551 59.0398C164.396 58.7027 164.318 58.2983 164.318 57.8267C164.318 57.3551 164.397 56.9517 164.554 56.6165C164.713 56.2812 164.931 56.0246 165.207 55.8466C165.484 55.6686 165.797 55.5795 166.148 55.5795C166.419 55.5795 166.636 55.625 166.801 55.7159C166.968 55.8049 167.097 55.9091 167.188 56.0284C167.28 56.1477 167.352 56.2528 167.403 56.3438H167.455V54.1818H168.304V60H167.474V59.321H167.403C167.352 59.4138 167.278 59.5199 167.182 59.6392C167.087 59.7585 166.956 59.8627 166.79 59.9517C166.623 60.0407 166.407 60.0852 166.142 60.0852ZM166.33 59.3608C166.574 59.3608 166.78 59.2964 166.949 59.1676C167.119 59.0369 167.248 58.8561 167.335 58.625C167.424 58.3939 167.469 58.125 167.469 57.8182C167.469 57.5152 167.425 57.25 167.338 57.0227C167.251 56.7955 167.123 56.6184 166.955 56.4915C166.786 56.3646 166.578 56.3011 166.33 56.3011C166.074 56.3011 165.861 56.3674 165.69 56.5C165.52 56.6326 165.391 56.8134 165.304 57.0426C165.219 57.2718 165.176 57.5303 165.176 57.8182C165.176 58.1098 165.22 58.3722 165.307 58.6051C165.394 58.8381 165.523 59.0227 165.693 59.1591C165.866 59.2936 166.078 59.3608 166.33 59.3608ZM172.58 54.1818V60H171.702V54.1818H172.58ZM176.006 53.9091L174.131 60.875H173.372L175.247 53.9091H176.006ZM181.849 57.0909C181.849 57.7121 181.736 58.2462 181.509 58.6932C181.281 59.1383 180.97 59.4811 180.574 59.7216C180.18 59.9602 179.732 60.0795 179.23 60.0795C178.726 60.0795 178.277 59.9602 177.881 59.7216C177.487 59.4811 177.176 59.1373 176.949 58.6903C176.722 58.2434 176.608 57.7102 176.608 57.0909C176.608 56.4697 176.722 55.9366 176.949 55.4915C177.176 55.0445 177.487 54.7017 177.881 54.4631C178.277 54.2225 178.726 54.1023 179.23 54.1023C179.732 54.1023 180.18 54.2225 180.574 54.4631C180.97 54.7017 181.281 55.0445 181.509 55.4915C181.736 55.9366 181.849 56.4697 181.849 57.0909ZM180.98 57.0909C180.98 56.6174 180.903 56.2187 180.75 55.8949C180.598 55.5691 180.39 55.3229 180.125 55.1562C179.862 54.9877 179.563 54.9034 179.23 54.9034C178.895 54.9034 178.596 54.9877 178.332 55.1562C178.069 55.3229 177.861 55.5691 177.707 55.8949C177.556 56.2187 177.48 56.6174 177.48 57.0909C177.48 57.5644 177.556 57.964 177.707 58.2898C177.861 58.6136 178.069 58.8598 178.332 59.0284C178.596 59.1951 178.895 59.2784 179.23 59.2784C179.563 59.2784 179.862 59.1951 180.125 59.0284C180.39 58.8598 180.598 58.6136 180.75 58.2898C180.903 57.964 180.98 57.5644 180.98 57.0909ZM184.774 54.9375V54.1818H189.277V54.9375H187.462V60H186.587V54.9375H184.774ZM191.452 60.0881C191.022 60.0881 190.652 59.9962 190.341 59.8125C190.032 59.6269 189.794 59.3665 189.625 59.0312C189.458 58.6941 189.375 58.2992 189.375 57.8466C189.375 57.3996 189.458 57.0057 189.625 56.6648C189.794 56.3239 190.028 56.0578 190.33 55.8665C190.633 55.6752 190.987 55.5795 191.392 55.5795C191.638 55.5795 191.877 55.6203 192.108 55.7017C192.339 55.7831 192.546 55.911 192.73 56.0852C192.914 56.2595 193.059 56.4858 193.165 56.7642C193.271 57.0407 193.324 57.3769 193.324 57.7727V58.0739H189.855V57.4375H192.491C192.491 57.214 192.446 57.0161 192.355 56.8438C192.264 56.6695 192.136 56.5322 191.972 56.4318C191.809 56.3314 191.617 56.2812 191.398 56.2812C191.159 56.2812 190.951 56.34 190.773 56.4574C190.597 56.5729 190.46 56.7244 190.364 56.9119C190.269 57.0975 190.222 57.2992 190.222 57.517V58.0142C190.222 58.3059 190.273 58.554 190.375 58.7585C190.479 58.9631 190.624 59.1193 190.81 59.2273C190.995 59.3333 191.212 59.3864 191.46 59.3864C191.621 59.3864 191.768 59.3636 191.901 59.3182C192.033 59.2708 192.148 59.2008 192.244 59.108C192.341 59.0152 192.415 58.9006 192.466 58.7642L193.27 58.9091C193.205 59.1458 193.09 59.3532 192.923 59.5312C192.759 59.7074 192.551 59.8447 192.301 59.9432C192.053 60.0398 191.77 60.0881 191.452 60.0881ZM197.536 56.7017L196.766 56.8381C196.734 56.7396 196.683 56.6458 196.613 56.5568C196.545 56.4678 196.452 56.3949 196.335 56.3381C196.217 56.2812 196.07 56.2528 195.894 56.2528C195.654 56.2528 195.453 56.3068 195.292 56.4148C195.131 56.5208 195.05 56.6581 195.05 56.8267C195.05 56.9725 195.104 57.09 195.212 57.179C195.32 57.268 195.495 57.3409 195.735 57.3977L196.428 57.5568C196.83 57.6496 197.129 57.7926 197.326 57.9858C197.523 58.179 197.621 58.4299 197.621 58.7386C197.621 59 197.546 59.233 197.394 59.4375C197.245 59.6402 197.035 59.7992 196.766 59.9148C196.499 60.0303 196.19 60.0881 195.837 60.0881C195.349 60.0881 194.95 59.9839 194.641 59.7756C194.333 59.5653 194.143 59.267 194.073 58.8807L194.894 58.7557C194.945 58.9697 195.05 59.1316 195.21 59.2415C195.369 59.3494 195.576 59.4034 195.832 59.4034C196.11 59.4034 196.333 59.3456 196.499 59.2301C196.666 59.1127 196.749 58.9697 196.749 58.8011C196.749 58.6648 196.698 58.5502 196.596 58.4574C196.496 58.3646 196.341 58.2945 196.133 58.2472L195.394 58.0852C194.987 57.9924 194.686 57.8447 194.491 57.642C194.298 57.4394 194.201 57.1828 194.201 56.8722C194.201 56.6146 194.273 56.3892 194.417 56.196C194.561 56.0028 194.76 55.8523 195.013 55.7443C195.267 55.6345 195.558 55.5795 195.886 55.5795C196.357 55.5795 196.728 55.6818 196.999 55.8864C197.27 56.089 197.449 56.3608 197.536 56.7017ZM200.592 55.6364V56.3182H198.209V55.6364H200.592ZM198.848 54.5909H199.697V58.7188C199.697 58.8835 199.722 59.0076 199.771 59.0909C199.821 59.1723 199.884 59.2282 199.962 59.2585C200.041 59.2869 200.127 59.3011 200.22 59.3011C200.288 59.3011 200.348 59.2964 200.399 59.2869C200.45 59.2775 200.49 59.2699 200.518 59.2642L200.672 59.9659C200.623 59.9848 200.553 60.0038 200.462 60.0227C200.371 60.0436 200.257 60.0549 200.121 60.0568C199.897 60.0606 199.689 60.0208 199.496 59.9375C199.303 59.8542 199.146 59.7254 199.027 59.5511C198.908 59.3769 198.848 59.1581 198.848 58.8949V54.5909Z" fill="black"/>
<rect x="123.5" y="45.5" width="87" height="23" rx="4.5" stroke="#A7ADB9"/>
<circle cx="123" cy="57" r="3.25" fill="#234580" stroke="white" stroke-width="1.5"/>
<circle cx="210" cy="57" r="3.25" fill="#234580" stroke="white" stroke-width="1.5"/>
<path d="M120 57L112.5 52.6699V61.3301L120 57ZM88 57.75H113.25V56.25H88V57.75Z" fill="#B1B1B7"/>
<g filter="url(#filter0_d_1175_5209)">
<path d="M166.649 78.9935C166.322 78.5735 165.914 77.7218 165.202 76.6601C164.794 76.0768 163.79 74.9685 163.487 74.3968C163.268 74.0494 163.205 73.6264 163.312 73.2301C163.495 72.4767 164.21 71.9769 164.98 72.0635C165.576 72.1832 166.124 72.4752 166.555 72.9035C166.856 73.1872 167.134 73.4954 167.384 73.8251C167.57 74.0585 167.617 74.1518 167.827 74.4201C168.037 74.6885 168.177 74.9568 168.072 74.5601C167.99 73.9768 167.85 72.9968 167.652 72.1218C167.5 71.4568 167.465 71.3518 167.325 70.8501C167.185 70.3485 167.104 69.9285 166.952 69.3568C166.813 68.7951 166.704 68.2266 166.625 67.6535C166.478 66.9204 166.585 66.1592 166.929 65.4951C167.336 65.1117 167.934 65.0105 168.445 65.2385C168.959 65.618 169.343 66.148 169.542 66.7551C169.848 67.5022 170.052 68.287 170.149 69.0885C170.335 70.2551 170.697 71.9585 170.709 72.3085C170.709 71.8768 170.627 70.9668 170.709 70.5585C170.79 70.1328 171.085 69.7795 171.49 69.6251C171.838 69.5185 172.205 69.4945 172.564 69.5551C172.925 69.6307 173.246 69.8388 173.462 70.1385C173.732 70.8191 173.882 71.5415 173.905 72.2735C173.936 71.6325 174.046 70.9977 174.232 70.3835C174.427 70.1088 174.712 69.9107 175.037 69.8235C175.423 69.7529 175.818 69.7529 176.204 69.8235C176.52 69.9292 176.797 70.1286 176.997 70.3951C177.244 71.0139 177.394 71.6672 177.44 72.3318C177.44 72.4951 177.522 71.8768 177.779 71.4685C177.912 71.0725 178.246 70.7777 178.656 70.6953C179.066 70.6128 179.488 70.7551 179.764 71.0686C180.041 71.3821 180.129 71.8191 179.995 72.2151C179.995 72.9735 179.995 72.9385 179.995 73.4518C179.995 73.9651 179.995 74.4201 179.995 74.8518C179.953 75.5345 179.859 76.2131 179.715 76.8818C179.512 77.4734 179.23 78.0347 178.875 78.5501C178.309 79.1801 177.841 79.892 177.487 80.6618C177.399 81.0442 177.36 81.4362 177.37 81.8285C177.369 82.1909 177.416 82.5518 177.51 82.9018C177.033 82.9522 176.552 82.9522 176.075 82.9018C175.62 82.8318 175.06 81.9218 174.909 81.6418C174.834 81.4914 174.68 81.3964 174.512 81.3964C174.344 81.3964 174.19 81.4914 174.115 81.6418C173.859 82.0851 173.287 82.8901 172.89 82.9368C172.109 83.0301 170.499 82.9368 169.227 82.9368C169.227 82.9368 169.437 81.7701 168.959 81.3501C168.48 80.9301 167.99 80.4401 167.629 80.1135L166.649 78.9935Z" fill="white"/>
<path fill-rule="evenodd" clip-rule="evenodd" d="M166.649 78.9935C166.322 78.5735 165.914 77.7218 165.202 76.6601C164.794 76.0768 163.79 74.9685 163.487 74.3968C163.268 74.0494 163.205 73.6264 163.312 73.2301C163.495 72.4767 164.21 71.9769 164.98 72.0635C165.576 72.1832 166.124 72.4752 166.555 72.9035C166.856 73.1872 167.134 73.4954 167.384 73.8251C167.57 74.0585 167.617 74.1518 167.827 74.4201C168.037 74.6885 168.177 74.9568 168.072 74.5601C167.99 73.9768 167.85 72.9968 167.652 72.1218C167.5 71.4568 167.465 71.3518 167.325 70.8501C167.185 70.3485 167.104 69.9285 166.952 69.3568C166.813 68.7951 166.704 68.2266 166.625 67.6535C166.478 66.9204 166.585 66.1592 166.929 65.4951C167.336 65.1117 167.934 65.0105 168.445 65.2385C168.959 65.618 169.343 66.148 169.542 66.7551C169.848 67.5022 170.052 68.287 170.149 69.0885C170.335 70.2551 170.697 71.9585 170.709 72.3085C170.709 71.8768 170.627 70.9668 170.709 70.5585C170.79 70.1328 171.085 69.7795 171.49 69.6251C171.838 69.5185 172.205 69.4945 172.564 69.5551C172.925 69.6307 173.246 69.8388 173.462 70.1385C173.732 70.8191 173.882 71.5415 173.905 72.2735C173.936 71.6325 174.046 70.9977 174.232 70.3835C174.427 70.1088 174.712 69.9107 175.037 69.8235C175.423 69.7529 175.818 69.7529 176.204 69.8235C176.52 69.9292 176.797 70.1286 176.997 70.3951C177.244 71.0139 177.394 71.6672 177.44 72.3318C177.44 72.4951 177.522 71.8768 177.779 71.4685C177.912 71.0725 178.246 70.7777 178.656 70.6953C179.066 70.6128 179.488 70.7551 179.764 71.0686C180.041 71.3821 180.129 71.8191 179.995 72.2151C179.995 72.9735 179.995 72.9385 179.995 73.4518C179.995 73.9651 179.995 74.4201 179.995 74.8518C179.953 75.5345 179.859 76.2131 179.715 76.8818C179.512 77.4734 179.23 78.0347 178.875 78.5501C178.309 79.1801 177.841 79.892 177.487 80.6618C177.399 81.0442 177.36 81.4362 177.37 81.8285C177.369 82.1909 177.416 82.5518 177.51 82.9018C177.033 82.9522 176.552 82.9522 176.075 82.9018C175.62 82.8318 175.06 81.9218 174.909 81.6418C174.834 81.4914 174.68 81.3964 174.512 81.3964C174.344 81.3964 174.19 81.4914 174.115 81.6418C173.859 82.0851 173.287 82.8901 172.89 82.9368C172.109 83.0301 170.499 82.9368 169.227 82.9368C169.227 82.9368 169.437 81.7701 168.959 81.3501C168.48 80.9301 167.99 80.4401 167.629 80.1135L166.649 78.9935Z" stroke="black" stroke-width="0.875" stroke-linecap="round" stroke-linejoin="round"/>
<path d="M176.542 79.6302V75.6031C176.542 75.362 176.346 75.1666 176.104 75.1666C175.863 75.1666 175.667 75.362 175.667 75.6031V79.6302C175.667 79.8712 175.863 80.0666 176.104 80.0666C176.346 80.0666 176.542 79.8712 176.542 79.6302Z" fill="black"/>
<path d="M174.232 79.6287L174.208 75.5995C174.207 75.3591 174.01 75.1652 173.768 75.1666C173.527 75.168 173.332 75.3641 173.333 75.6046L173.357 79.6337C173.358 79.8742 173.555 80.068 173.797 80.0666C174.038 80.0652 174.233 79.8692 174.232 79.6287Z" fill="black"/>
<path d="M171 75.6088L171.023 79.6296C171.025 79.8724 171.222 80.068 171.463 80.0666C171.705 80.0652 171.9 79.8672 171.898 79.6245L171.875 75.6037C171.874 75.3609 171.677 75.1652 171.435 75.1666C171.193 75.168 170.999 75.366 171 75.6088Z" fill="black"/>
</g>
</g>
<defs>
<filter id="filter0_d_1175_5209" x="154.9" y="59.0667" width="32.2" height="32.2" filterUnits="userSpaceOnUse" color-interpolation-filters="sRGB">
<feFlood flood-opacity="0" result="BackgroundImageFix"/>
<feColorMatrix in="SourceAlpha" type="matrix" values="0 0 0 0 0 0 0 0 0 0 0 0 0 0 0 0 0 0 127 0" result="hardAlpha"/>
<feOffset dy="1.16667"/>
<feGaussianBlur stdDeviation="1.05"/>
<feColorMatrix type="matrix" values="0 0 0 0 0 0 0 0 0 0 0 0 0 0 0 0 0 0 0.65 0"/>
<feBlend mode="normal" in2="BackgroundImageFix" result="effect1_dropShadow_1175_5209"/>
<feBlend mode="normal" in="SourceGraphic" in2="effect1_dropShadow_1175_5209" result="shape"/>
</filter>
<clipPath id="clip0_1175_5209">
<rect width="229" height="120" fill="white"/>
</clipPath>
</defs>
</svg>
