<svg width="344" height="171" viewBox="0 0 344 171" fill="none" xmlns="http://www.w3.org/2000/svg">
<g clip-path="url(#clip0_604_4877)">
<pattern id="dots" x="10" y="5" width="20" height="20" patternUnits="userSpaceOnUse" patternTransform="translate(-1,-1)"><circle cx="1" cy="1" r="1" fill="#91919a"></circle></pattern>
<rect width="344" height="171" fill="#F9FAFB"/>
<rect width="344" height="171" fill="url(#dots)"/>
<rect x="53.5" y="49.7" width="232.4" height="68.6" rx="7.7" fill="#DBEAFE"/>
<path d="M140.921 81.0073H138.439C138.343 80.477 138.166 80.0103 137.906 79.6073C137.646 79.2043 137.328 78.8622 136.951 78.5812C136.575 78.3001 136.153 78.088 135.686 77.9448C135.225 77.8016 134.735 77.73 134.215 77.73C133.276 77.73 132.436 77.966 131.693 78.438C130.956 78.91 130.373 79.602 129.943 80.5141C129.519 81.4262 129.307 82.5399 129.307 83.855C129.307 85.1808 129.519 86.2997 129.943 87.2119C130.373 88.124 130.959 88.8134 131.701 89.28C132.444 89.7467 133.279 89.98 134.207 89.98C134.721 89.98 135.209 89.9111 135.671 89.7732C136.137 89.63 136.559 89.4206 136.935 89.1448C137.312 88.869 137.63 88.5323 137.89 88.1346C138.155 87.7315 138.338 87.2702 138.439 86.7505L140.921 86.7584C140.788 87.5592 140.531 88.2963 140.149 88.9698C139.772 89.638 139.287 90.216 138.693 90.7039C138.105 91.1865 137.431 91.5603 136.673 91.8255C135.914 92.0906 135.087 92.2232 134.191 92.2232C132.78 92.2232 131.524 91.8891 130.421 91.2209C129.318 90.5475 128.448 89.585 127.811 88.3334C127.18 87.0819 126.865 85.5891 126.865 83.855C126.865 82.1156 127.183 80.6228 127.819 79.3766C128.456 78.1251 129.325 77.1653 130.429 76.4971C131.532 75.8236 132.786 75.4869 134.191 75.4869C135.055 75.4869 135.861 75.6115 136.609 75.8607C137.362 76.1047 138.038 76.4653 138.638 76.9425C139.237 77.4145 139.733 77.9925 140.125 78.6766C140.518 79.3554 140.783 80.1323 140.921 81.0073ZM148.817 92.2471C147.672 92.2471 146.672 91.9846 145.819 91.4596C144.965 90.9346 144.302 90.2001 143.83 89.2562C143.358 88.3122 143.122 87.2092 143.122 85.9471C143.122 84.6797 143.358 83.5713 143.83 82.6221C144.302 81.6728 144.965 80.9357 145.819 80.4107C146.672 79.8857 147.672 79.6232 148.817 79.6232C149.963 79.6232 150.963 79.8857 151.816 80.4107C152.67 80.9357 153.333 81.6728 153.805 82.6221C154.277 83.5713 154.513 84.6797 154.513 85.9471C154.513 87.2092 154.277 88.3122 153.805 89.2562C153.333 90.2001 152.67 90.9346 151.816 91.4596C150.963 91.9846 149.963 92.2471 148.817 92.2471ZM148.825 90.2505C149.568 90.2505 150.183 90.0543 150.671 89.6619C151.159 89.2694 151.519 88.7471 151.753 88.0948C151.991 87.4425 152.111 86.724 152.111 85.9391C152.111 85.1596 151.991 84.4437 151.753 83.7914C151.519 83.1338 151.159 82.6062 150.671 82.2084C150.183 81.8107 149.568 81.6119 148.825 81.6119C148.078 81.6119 147.457 81.8107 146.964 82.2084C146.476 82.6062 146.113 83.1338 145.874 83.7914C145.641 84.4437 145.524 85.1596 145.524 85.9391C145.524 86.724 145.641 87.4425 145.874 88.0948C146.113 88.7471 146.476 89.2694 146.964 89.6619C147.457 90.0543 148.078 90.2505 148.825 90.2505ZM157.168 92.0005V79.7823H159.451V81.7709H159.602C159.856 81.0975 160.273 80.5725 160.851 80.1959C161.429 79.8141 162.121 79.6232 162.927 79.6232C163.743 79.6232 164.428 79.8141 164.979 80.1959C165.536 80.5778 165.947 81.1028 166.212 81.7709H166.339C166.631 81.1187 167.095 80.599 167.731 80.2119C168.368 79.8194 169.126 79.6232 170.006 79.6232C171.115 79.6232 172.019 79.9706 172.719 80.6653C173.424 81.36 173.777 82.4073 173.777 83.8073V92.0005H171.398V84.03C171.398 83.2028 171.173 82.6035 170.722 82.2323C170.271 81.8611 169.733 81.6755 169.107 81.6755C168.333 81.6755 167.731 81.9141 167.302 82.3914C166.872 82.8634 166.657 83.4706 166.657 84.213V92.0005H164.287V83.8789C164.287 83.216 164.08 82.6831 163.667 82.28C163.253 81.877 162.715 81.6755 162.052 81.6755C161.601 81.6755 161.185 81.7948 160.803 82.0334C160.426 82.2668 160.121 82.5929 159.888 83.0119C159.66 83.4308 159.546 83.916 159.546 84.4675V92.0005H157.168ZM176.965 96.5823V79.7823H179.287V81.763H179.486C179.624 81.5084 179.823 81.2141 180.083 80.88C180.343 80.5459 180.703 80.2543 181.165 80.005C181.626 79.7505 182.236 79.6232 182.994 79.6232C183.98 79.6232 184.861 79.8725 185.635 80.3709C186.409 80.8694 187.016 81.588 187.457 82.5266C187.902 83.4653 188.125 84.5948 188.125 85.9153C188.125 87.2357 187.905 88.3679 187.465 89.3119C187.024 90.2505 186.42 90.9744 185.651 91.4834C184.882 91.9872 184.004 92.2391 183.018 92.2391C182.276 92.2391 181.668 92.1145 181.196 91.8653C180.73 91.616 180.364 91.3244 180.099 90.9903C179.834 90.6562 179.629 90.3592 179.486 90.0994H179.343V96.5823H176.965ZM179.295 85.8914C179.295 86.7505 179.42 87.5035 179.669 88.1505C179.918 88.7975 180.279 89.3039 180.751 89.6698C181.223 90.0304 181.801 90.2107 182.485 90.2107C183.196 90.2107 183.79 90.0225 184.267 89.6459C184.744 89.2641 185.105 88.7471 185.349 88.0948C185.598 87.4425 185.723 86.7081 185.723 85.8914C185.723 85.0853 185.601 84.3615 185.357 83.7198C185.118 83.0781 184.757 82.5717 184.275 82.2005C183.798 81.8293 183.201 81.6437 182.485 81.6437C181.796 81.6437 181.212 81.8213 180.735 82.1766C180.263 82.5319 179.905 83.0278 179.661 83.6641C179.417 84.3005 179.295 85.0429 179.295 85.8914ZM190.79 92.0005V79.7823H193.168V92.0005H190.79ZM191.991 77.8971C191.577 77.8971 191.222 77.7592 190.925 77.4834C190.633 77.2024 190.487 76.8683 190.487 76.4812C190.487 76.0887 190.633 75.7547 190.925 75.4789C191.222 75.1978 191.577 75.0573 191.991 75.0573C192.404 75.0573 192.757 75.1978 193.049 75.4789C193.346 75.7547 193.494 76.0887 193.494 76.4812C193.494 76.8683 193.346 77.2024 193.049 77.4834C192.757 77.7592 192.404 77.8971 191.991 77.8971ZM198.746 75.7096V92.0005H196.368V75.7096H198.746ZM207.212 92.2471C206.008 92.2471 204.971 91.9899 204.102 91.4755C203.237 90.9558 202.569 90.2266 202.097 89.288C201.63 88.344 201.397 87.2384 201.397 85.9709C201.397 84.7194 201.63 83.6164 202.097 82.6619C202.569 81.7073 203.227 80.9622 204.07 80.4266C204.918 79.891 205.91 79.6232 207.045 79.6232C207.734 79.6232 208.402 79.7372 209.049 79.9653C209.696 80.1933 210.277 80.5512 210.791 81.0391C211.306 81.527 211.711 82.1607 212.008 82.9403C212.305 83.7145 212.454 84.6558 212.454 85.7641V86.6073H202.741V84.8255H210.123C210.123 84.1997 209.996 83.6456 209.741 83.163C209.487 82.6751 209.129 82.2906 208.667 82.0096C208.211 81.7285 207.676 81.588 207.061 81.588C206.392 81.588 205.809 81.7524 205.311 82.0812C204.817 82.4047 204.436 82.8289 204.165 83.3539C203.9 83.8736 203.767 84.4384 203.767 85.0482V86.4403C203.767 87.2569 203.911 87.9516 204.197 88.5244C204.489 89.0971 204.894 89.5346 205.414 89.8369C205.934 90.1338 206.541 90.2823 207.236 90.2823C207.686 90.2823 208.097 90.2187 208.469 90.0914C208.84 89.9588 209.161 89.7626 209.431 89.5028C209.702 89.2429 209.908 88.9221 210.052 88.5403L212.303 88.9459C212.122 89.6088 211.799 90.1895 211.332 90.688C210.871 91.1812 210.29 91.5656 209.59 91.8414C208.895 92.1119 208.103 92.2471 207.212 92.2471Z" fill="black"/>
<rect x="53.5" y="49.7" width="232.4" height="68.6" rx="7.7" stroke="#A7ADB9" stroke-width="1.4"/>
<circle cx="52.8" cy="83.9997" r="8.4" fill="#234580" stroke="white" stroke-width="2.8"/>
<circle cx="286.6" cy="83.9997" r="8.4" fill="#234580" stroke="white" stroke-width="2.8"/>
<g filter="url(#filter0_d_604_4877)">
<path d="M213.695 137.382C213.147 136.677 212.462 135.247 211.267 133.465C210.582 132.486 208.898 130.625 208.388 129.666C208.021 129.083 207.915 128.373 208.095 127.708C208.402 126.443 209.602 125.604 210.895 125.749C211.895 125.95 212.815 126.44 213.539 127.159C214.044 127.635 214.51 128.153 214.929 128.706C215.243 129.098 215.321 129.255 215.673 129.705C216.026 130.155 216.261 130.606 216.085 129.94C215.948 128.961 215.713 127.316 215.38 125.847C215.125 124.731 215.066 124.555 214.831 123.713C214.596 122.87 214.459 122.165 214.205 121.206C213.972 120.263 213.789 119.309 213.656 118.347C213.409 117.116 213.589 115.838 214.165 114.724C214.85 114.08 215.853 113.91 216.711 114.293C217.574 114.93 218.217 115.82 218.552 116.839C219.065 118.093 219.408 119.41 219.57 120.755C219.884 122.714 220.491 125.573 220.51 126.16C220.51 125.436 220.373 123.908 220.51 123.223C220.646 122.508 221.143 121.915 221.823 121.656C222.406 121.477 223.023 121.437 223.624 121.539C224.231 121.666 224.769 122.015 225.132 122.518C225.586 123.66 225.838 124.873 225.876 126.102C225.929 125.026 226.113 123.96 226.425 122.929C226.752 122.468 227.23 122.136 227.776 121.989C228.423 121.871 229.087 121.871 229.734 121.989C230.265 122.167 230.73 122.501 231.066 122.949C231.481 123.987 231.732 125.084 231.81 126.2C231.81 126.474 231.947 125.436 232.378 124.75C232.602 124.086 233.163 123.591 233.851 123.453C234.538 123.314 235.248 123.553 235.711 124.079C236.175 124.605 236.323 125.339 236.099 126.004C236.099 127.277 236.099 127.218 236.099 128.08C236.099 128.941 236.099 129.705 236.099 130.43C236.027 131.576 235.87 132.715 235.629 133.837C235.288 134.83 234.814 135.772 234.219 136.638C233.268 137.695 232.482 138.89 231.888 140.182C231.741 140.824 231.675 141.482 231.693 142.14C231.691 142.749 231.77 143.355 231.928 143.942C231.127 144.027 230.32 144.027 229.519 143.942C228.755 143.825 227.815 142.297 227.56 141.827C227.435 141.575 227.177 141.415 226.895 141.415C226.613 141.415 226.355 141.575 226.229 141.827C225.798 142.571 224.838 143.923 224.173 144.001C222.86 144.158 220.158 144.001 218.023 144.001C218.023 144.001 218.376 142.043 217.573 141.338C216.77 140.633 215.948 139.81 215.34 139.262L213.695 137.382Z" fill="white"/>
<path fill-rule="evenodd" clip-rule="evenodd" d="M213.695 137.382C213.147 136.677 212.462 135.247 211.267 133.465C210.582 132.486 208.898 130.625 208.388 129.666C208.021 129.083 207.915 128.373 208.095 127.708C208.402 126.443 209.602 125.604 210.895 125.749C211.895 125.95 212.815 126.44 213.539 127.159C214.044 127.635 214.51 128.153 214.929 128.706C215.243 129.098 215.321 129.255 215.673 129.705C216.026 130.155 216.261 130.606 216.085 129.94C215.948 128.961 215.713 127.316 215.38 125.847C215.125 124.731 215.066 124.555 214.831 123.713C214.596 122.87 214.459 122.165 214.205 121.206C213.972 120.263 213.789 119.309 213.656 118.347C213.409 117.116 213.589 115.838 214.165 114.724C214.85 114.08 215.853 113.91 216.711 114.293C217.574 114.93 218.217 115.82 218.552 116.839C219.065 118.093 219.408 119.41 219.57 120.755C219.884 122.714 220.491 125.573 220.51 126.16C220.51 125.436 220.373 123.908 220.51 123.223C220.646 122.508 221.143 121.915 221.823 121.656C222.406 121.477 223.023 121.437 223.624 121.539C224.231 121.666 224.769 122.015 225.132 122.518C225.586 123.66 225.838 124.873 225.876 126.102C225.929 125.026 226.113 123.96 226.425 122.929C226.752 122.468 227.23 122.136 227.776 121.989C228.423 121.871 229.087 121.871 229.734 121.989C230.265 122.167 230.73 122.501 231.066 122.949C231.481 123.987 231.732 125.084 231.81 126.2C231.81 126.474 231.947 125.436 232.378 124.75C232.602 124.086 233.163 123.591 233.851 123.453C234.538 123.314 235.248 123.553 235.711 124.079C236.175 124.605 236.323 125.339 236.099 126.004C236.099 127.277 236.099 127.218 236.099 128.08C236.099 128.941 236.099 129.705 236.099 130.43C236.027 131.576 235.87 132.715 235.629 133.837C235.288 134.83 234.814 135.772 234.219 136.638C233.268 137.695 232.482 138.89 231.888 140.182C231.741 140.824 231.675 141.482 231.693 142.14C231.691 142.749 231.77 143.355 231.928 143.942C231.127 144.027 230.32 144.027 229.519 143.942C228.755 143.825 227.815 142.297 227.56 141.827C227.435 141.575 227.177 141.415 226.895 141.415C226.613 141.415 226.355 141.575 226.229 141.827C225.798 142.571 224.838 143.923 224.173 144.001C222.86 144.158 220.158 144.001 218.023 144.001C218.023 144.001 218.376 142.043 217.573 141.338C216.77 140.633 215.948 139.81 215.34 139.262L213.695 137.382Z" stroke="black" stroke-width="1.46875" stroke-linecap="round" stroke-linejoin="round"/>
<path d="M230.302 138.451V131.691C230.302 131.287 229.973 130.958 229.568 130.958C229.162 130.958 228.833 131.287 228.833 131.691V138.451C228.833 138.855 229.162 139.183 229.568 139.183C229.973 139.183 230.302 138.855 230.302 138.451Z" fill="black"/>
<path d="M226.425 138.448L226.385 131.685C226.383 131.282 226.052 130.956 225.647 130.959C225.241 130.961 224.914 131.29 224.917 131.694L224.956 138.457C224.958 138.86 225.289 139.186 225.695 139.183C226.1 139.181 226.427 138.852 226.425 138.448Z" fill="black"/>
<path d="M221 131.701L221.039 138.45C221.042 138.857 221.372 139.186 221.778 139.183C222.184 139.181 222.51 138.849 222.508 138.441L222.469 131.692C222.466 131.285 222.136 130.956 221.73 130.959C221.325 130.961 220.998 131.293 221 131.701Z" fill="black"/>
</g>
</g>
<defs>
<filter id="filter0_d_604_4877" x="193.475" y="103.433" width="54.05" height="54.05" filterUnits="userSpaceOnUse" color-interpolation-filters="sRGB">
<feFlood flood-opacity="0" result="BackgroundImageFix"/>
<feColorMatrix in="SourceAlpha" type="matrix" values="0 0 0 0 0 0 0 0 0 0 0 0 0 0 0 0 0 0 127 0" result="hardAlpha"/>
<feOffset dy="1.95833"/>
<feGaussianBlur stdDeviation="1.7625"/>
<feColorMatrix type="matrix" values="0 0 0 0 0 0 0 0 0 0 0 0 0 0 0 0 0 0 0.65 0"/>
<feBlend mode="normal" in2="BackgroundImageFix" result="effect1_dropShadow_604_4877"/>
<feBlend mode="normal" in="SourceGraphic" in2="effect1_dropShadow_604_4877" result="shape"/>
</filter>
<clipPath id="clip0_604_4877">
<rect width="344" height="171" fill="white"/>
</clipPath>
</defs>
</svg>
