<svg width="650" height="172" viewBox="0 0 650 172" fill="none" xmlns="http://www.w3.org/2000/svg">
<rect width="650" height="172" rx="8.125" fill="white"/>
<g clip-path="url(#clip0_810_5191)">
<pattern id="dots" x="10" y="5" width="20" height="20" patternUnits="userSpaceOnUse" patternTransform="translate(-1,-1)"><circle cx="1" cy="1" r="1" fill="#91919a"></circle></pattern>
<rect x="13.8125" y="15.4375" width="281.125" height="136.5" rx="4.0625" fill="#E5E7EB"/>
<g filter="url(#filter0_d_810_5191)">
<g clip-path="url(#clip1_810_5191)">
<rect x="-21" y="35" width="303.681" height="131.041" rx="6.24003" fill="white"/>
<rect width="303.681" height="45.7602" transform="translate(-21 35)" fill="#EFF6FF"/>
<rect x="91.8406" y="46.9604" width="154.961" height="25.28" rx="4.68002" fill="white"/>
<path d="M106.138 59.8231V64.6006H104.917V54.0115H106.138V57.8996H106.241C106.427 57.4895 106.706 57.1637 107.079 56.9224C107.454 56.6777 107.954 56.5553 108.578 56.5553C109.119 56.5553 109.593 56.6639 110 56.8811C110.407 57.0948 110.722 57.424 110.946 57.8686C111.174 58.3098 111.287 58.8717 111.287 59.5542V64.6006H110.067V59.6369C110.067 59.0061 109.903 58.5184 109.576 58.1737C109.252 57.8255 108.802 57.6515 108.227 57.6515C107.827 57.6515 107.468 57.7359 107.151 57.9048C106.837 58.0737 106.589 58.3202 106.407 58.6442C106.227 58.9682 106.138 59.3612 106.138 59.8231ZM113.52 64.6006V56.6587H114.74V64.6006H113.52ZM114.14 55.3351C113.902 55.3351 113.697 55.2541 113.525 55.0921C113.356 54.9301 113.272 54.7353 113.272 54.5078C113.272 54.2803 113.356 54.0856 113.525 53.9236C113.697 53.7615 113.902 53.6805 114.14 53.6805C114.378 53.6805 114.581 53.7615 114.75 53.9236C114.923 54.0856 115.009 54.2803 115.009 54.5078C115.009 54.7353 114.923 54.9301 114.75 55.0921C114.581 55.2541 114.378 55.3351 114.14 55.3351ZM119.974 64.766C119.312 64.766 118.728 64.5989 118.221 64.2645C117.714 63.9267 117.318 63.451 117.032 62.8375C116.746 62.2204 116.603 61.4914 116.603 60.6503C116.603 59.8162 116.746 59.0923 117.032 58.4787C117.318 57.8652 117.716 57.3912 118.226 57.0569C118.736 56.7225 119.326 56.5553 119.995 56.5553C120.512 56.5553 120.92 56.6415 121.22 56.8138C121.523 56.9828 121.754 57.1758 121.913 57.3929C122.075 57.6067 122.201 57.7825 122.29 57.9203H122.394V54.0115H123.614V64.6006H122.435V63.3804H122.29C122.201 63.5251 122.073 63.7078 121.908 63.9284C121.742 64.1456 121.506 64.3403 121.199 64.5127C120.892 64.6816 120.484 64.766 119.974 64.766ZM120.139 63.6699C120.629 63.6699 121.042 63.5424 121.38 63.2873C121.718 63.0288 121.975 62.672 122.151 62.217C122.326 61.7585 122.414 61.2294 122.414 60.6297C122.414 60.0368 122.328 59.518 122.156 59.0733C121.983 58.6252 121.728 58.2771 121.391 58.0289C121.053 57.7773 120.636 57.6515 120.139 57.6515C119.622 57.6515 119.191 57.7842 118.847 58.0496C118.505 58.3116 118.249 58.6683 118.076 59.1199C117.907 59.568 117.823 60.0712 117.823 60.6297C117.823 61.195 117.909 61.7086 118.081 62.1705C118.257 62.6289 118.516 62.9943 118.857 63.2666C119.202 63.5355 119.629 63.6699 120.139 63.6699ZM129.017 64.766C128.355 64.766 127.771 64.5989 127.264 64.2645C126.758 63.9267 126.361 63.451 126.075 62.8375C125.789 62.2204 125.646 61.4914 125.646 60.6503C125.646 59.8162 125.789 59.0923 126.075 58.4787C126.361 57.8652 126.759 57.3912 127.269 57.0569C127.78 56.7225 128.369 56.5553 129.038 56.5553C129.555 56.5553 129.963 56.6415 130.263 56.8138C130.566 56.9828 130.797 57.1758 130.956 57.3929C131.118 57.6067 131.244 57.7825 131.333 57.9203H131.437V54.0115H132.657V64.6006H131.478V63.3804H131.333C131.244 63.5251 131.116 63.7078 130.951 63.9284C130.785 64.1456 130.549 64.3403 130.242 64.5127C129.936 64.6816 129.527 64.766 129.017 64.766ZM129.182 63.6699C129.672 63.6699 130.086 63.5424 130.423 63.2873C130.761 63.0288 131.018 62.672 131.194 62.217C131.37 61.7585 131.457 61.2294 131.457 60.6297C131.457 60.0368 131.371 59.518 131.199 59.0733C131.027 58.6252 130.772 58.2771 130.434 58.0289C130.096 57.7773 129.679 57.6515 129.182 57.6515C128.665 57.6515 128.235 57.7842 127.89 58.0496C127.549 58.3116 127.292 58.6683 127.119 59.1199C126.951 59.568 126.866 60.0712 126.866 60.6297C126.866 61.195 126.952 61.7086 127.125 62.1705C127.3 62.6289 127.559 62.9943 127.9 63.2666C128.245 63.5355 128.672 63.6699 129.182 63.6699ZM138.391 64.766C137.626 64.766 136.966 64.5971 136.411 64.2593C135.859 63.9181 135.434 63.4424 135.134 62.8323C134.837 62.2187 134.689 61.5052 134.689 60.6917C134.689 59.8782 134.837 59.1612 135.134 58.5408C135.434 57.9169 135.851 57.4309 136.385 57.0827C136.923 56.7311 137.55 56.5553 138.267 56.5553C138.681 56.5553 139.089 56.6243 139.492 56.7621C139.896 56.9 140.263 57.1241 140.594 57.4343C140.925 57.7411 141.188 58.1478 141.385 58.6545C141.581 59.1612 141.68 59.7851 141.68 60.5263V61.0433H135.558V59.9885H140.439C140.439 59.5404 140.349 59.1406 140.17 58.789C139.994 58.4374 139.742 58.1599 139.415 57.9565C139.091 57.7532 138.708 57.6515 138.267 57.6515C137.781 57.6515 137.36 57.7721 137.005 58.0134C136.654 58.2512 136.383 58.5615 136.194 58.9441C136.004 59.3267 135.909 59.7369 135.909 60.1747V60.8778C135.909 61.4776 136.013 61.986 136.219 62.4031C136.43 62.8168 136.721 63.1322 137.093 63.3493C137.466 63.563 137.898 63.6699 138.391 63.6699C138.712 63.6699 139.001 63.6251 139.26 63.5355C139.522 63.4424 139.747 63.3045 139.937 63.1218C140.127 62.9357 140.273 62.7047 140.377 62.429L141.555 62.7599C141.431 63.1597 141.223 63.5113 140.93 63.8147C140.637 64.1146 140.275 64.349 139.844 64.5179C139.413 64.6833 138.929 64.766 138.391 64.766ZM144.756 59.8231V64.6006H143.536V56.6587H144.715V57.8996H144.818C145.004 57.4964 145.287 57.1723 145.666 56.9276C146.045 56.6794 146.535 56.5553 147.134 56.5553C147.672 56.5553 148.143 56.6656 148.546 56.8862C148.949 57.1034 149.263 57.4343 149.487 57.879C149.711 58.3202 149.823 58.8786 149.823 59.5542V64.6006H148.603V59.6369C148.603 59.013 148.441 58.527 148.117 58.1789C147.793 57.8273 147.348 57.6515 146.783 57.6515C146.393 57.6515 146.045 57.7359 145.738 57.9048C145.435 58.0737 145.195 58.3202 145.02 58.6442C144.844 58.9682 144.756 59.3612 144.756 59.8231ZM160.739 57.3206H159.457C159.381 56.9517 159.248 56.6277 159.059 56.3485C158.873 56.0693 158.645 55.8349 158.376 55.6453C158.111 55.4523 157.816 55.3075 157.492 55.211C157.168 55.1145 156.83 55.0662 156.479 55.0662C155.838 55.0662 155.257 55.2282 154.736 55.5523C154.219 55.8763 153.807 56.3537 153.501 56.9845C153.197 57.6153 153.046 58.3891 153.046 59.306C153.046 60.2229 153.197 60.9968 153.501 61.6276C153.807 62.2584 154.219 62.7358 154.736 63.0598C155.257 63.3838 155.838 63.5458 156.479 63.5458C156.83 63.5458 157.168 63.4976 157.492 63.401C157.816 63.3045 158.111 63.1615 158.376 62.9719C158.645 62.7789 158.873 62.5427 159.059 62.2635C159.248 61.9809 159.381 61.6569 159.457 61.2915H160.739C160.643 61.8327 160.467 62.317 160.212 62.7444C159.957 63.1718 159.64 63.5355 159.26 63.8354C158.881 64.1318 158.456 64.3576 157.983 64.5127C157.515 64.6678 157.013 64.7454 156.479 64.7454C155.576 64.7454 154.772 64.5248 154.069 64.0835C153.366 63.6423 152.813 63.015 152.41 62.2015C152.006 61.388 151.805 60.4228 151.805 59.306C151.805 58.1892 152.006 57.224 152.41 56.4106C152.813 55.5971 153.366 54.9697 154.069 54.5285C154.772 54.0873 155.576 53.8667 156.479 53.8667C157.013 53.8667 157.515 53.9442 157.983 54.0993C158.456 54.2545 158.881 54.482 159.26 54.7819C159.64 55.0783 159.957 55.4402 160.212 55.8677C160.467 56.2916 160.643 56.7759 160.739 57.3206ZM164.983 64.7867C164.48 64.7867 164.023 64.6919 163.613 64.5023C163.202 64.3093 162.877 64.0318 162.635 63.6699C162.394 63.3045 162.274 62.8633 162.274 62.3463C162.274 61.8913 162.363 61.5224 162.542 61.2398C162.722 60.9537 162.961 60.7296 163.261 60.5676C163.561 60.4056 163.892 60.285 164.254 60.2057C164.619 60.123 164.986 60.0575 165.355 60.0092C165.838 59.9472 166.229 59.9006 166.529 59.8696C166.832 59.8351 167.053 59.7783 167.191 59.699C167.332 59.6197 167.403 59.4818 167.403 59.2853V59.244C167.403 58.7338 167.263 58.3374 166.984 58.0548C166.708 57.7721 166.289 57.6308 165.727 57.6308C165.145 57.6308 164.688 57.7583 164.357 58.0134C164.026 58.2685 163.794 58.5408 163.659 58.8303L162.501 58.4167C162.708 57.9341 162.984 57.5584 163.328 57.2895C163.676 57.0172 164.056 56.8276 164.466 56.7208C164.879 56.6105 165.286 56.5553 165.686 56.5553C165.941 56.5553 166.234 56.5863 166.565 56.6484C166.899 56.707 167.222 56.8294 167.532 57.0155C167.846 57.2016 168.106 57.4826 168.313 57.8583C168.519 58.234 168.623 58.7373 168.623 59.3681V64.6006H167.403V63.5251H167.341C167.258 63.6975 167.12 63.8819 166.927 64.0784C166.734 64.2748 166.477 64.442 166.157 64.5799C165.836 64.7178 165.445 64.7867 164.983 64.7867ZM165.169 63.6906C165.652 63.6906 166.058 63.5958 166.389 63.4062C166.724 63.2166 166.975 62.9719 167.144 62.672C167.316 62.3721 167.403 62.0567 167.403 61.7258V60.609C167.351 60.671 167.237 60.7279 167.061 60.7796C166.889 60.8279 166.689 60.8709 166.462 60.9089C166.238 60.9433 166.019 60.9744 165.805 61.0019C165.595 61.0261 165.424 61.0467 165.293 61.064C164.976 61.1053 164.68 61.1726 164.404 61.2656C164.131 61.3553 163.911 61.4914 163.742 61.6741C163.576 61.8533 163.494 62.0981 163.494 62.4083C163.494 62.8323 163.651 63.1529 163.964 63.37C164.281 63.5837 164.683 63.6906 165.169 63.6906ZM176.476 58.4374L175.379 58.7476C175.31 58.5649 175.209 58.3874 175.074 58.215C174.943 58.0393 174.764 57.8945 174.537 57.7807C174.309 57.667 174.018 57.6101 173.663 57.6101C173.177 57.6101 172.772 57.7221 172.448 57.9462C172.127 58.1668 171.967 58.4477 171.967 58.789C171.967 59.0923 172.077 59.3319 172.298 59.5077C172.518 59.6835 172.863 59.83 173.332 59.9472L174.511 60.2367C175.221 60.4091 175.75 60.6727 176.098 61.0278C176.446 61.3794 176.62 61.8327 176.62 62.3876C176.62 62.8426 176.489 63.2494 176.227 63.6079C175.969 63.9663 175.607 64.249 175.142 64.4558C174.676 64.6626 174.135 64.766 173.518 64.766C172.708 64.766 172.038 64.5902 171.507 64.2387C170.976 63.8871 170.64 63.3735 170.498 62.6979L171.657 62.4083C171.767 62.8357 171.975 63.1563 172.282 63.37C172.592 63.5837 172.998 63.6906 173.497 63.6906C174.066 63.6906 174.518 63.5699 174.852 63.3286C175.19 63.0839 175.359 62.7909 175.359 62.4497C175.359 62.1739 175.262 61.943 175.069 61.7568C174.876 61.5672 174.58 61.4259 174.18 61.3328L172.856 61.0226C172.129 60.8503 171.595 60.5831 171.253 60.2212C170.916 59.8558 170.747 59.3991 170.747 58.851C170.747 58.4029 170.872 58.0065 171.124 57.6618C171.379 57.3171 171.726 57.0465 172.163 56.85C172.605 56.6536 173.104 56.5553 173.663 56.5553C174.449 56.5553 175.066 56.7277 175.514 57.0724C175.965 57.4171 176.286 57.8721 176.476 58.4374ZM181.787 64.766C181.022 64.766 180.362 64.5971 179.807 64.2593C179.255 63.9181 178.829 63.4424 178.529 62.8323C178.233 62.2187 178.085 61.5052 178.085 60.6917C178.085 59.8782 178.233 59.1612 178.529 58.5408C178.829 57.9169 179.246 57.4309 179.781 57.0827C180.318 56.7311 180.946 56.5553 181.663 56.5553C182.076 56.5553 182.485 56.6243 182.888 56.7621C183.291 56.9 183.659 57.1241 183.99 57.4343C184.32 57.7411 184.584 58.1478 184.781 58.6545C184.977 59.1612 185.075 59.7851 185.075 60.5263V61.0433H178.953V59.9885H183.834C183.834 59.5404 183.745 59.1406 183.566 58.789C183.39 58.4374 183.138 58.1599 182.811 57.9565C182.487 57.7532 182.104 57.6515 181.663 57.6515C181.177 57.6515 180.756 57.7721 180.401 58.0134C180.05 58.2512 179.779 58.5615 179.589 58.9441C179.4 59.3267 179.305 59.7369 179.305 60.1747V60.8778C179.305 61.4776 179.408 61.986 179.615 62.4031C179.826 62.8168 180.117 63.1322 180.489 63.3493C180.861 63.563 181.294 63.6699 181.787 63.6699C182.107 63.6699 182.397 63.6251 182.656 63.5355C182.917 63.4424 183.143 63.3045 183.333 63.1218C183.522 62.9357 183.669 62.7047 183.772 62.429L184.951 62.7599C184.827 63.1597 184.619 63.5113 184.326 63.8147C184.033 64.1146 183.671 64.349 183.24 64.5179C182.809 64.6833 182.325 64.766 181.787 64.766ZM192.557 58.4374L191.461 58.7476C191.392 58.5649 191.29 58.3874 191.156 58.215C191.025 58.0393 190.846 57.8945 190.618 57.7807C190.391 57.667 190.099 57.6101 189.744 57.6101C189.258 57.6101 188.853 57.7221 188.529 57.9462C188.209 58.1668 188.048 58.4477 188.048 58.789C188.048 59.0923 188.159 59.3319 188.379 59.5077C188.6 59.6835 188.945 59.83 189.413 59.9472L190.592 60.2367C191.302 60.4091 191.831 60.6727 192.18 61.0278C192.528 61.3794 192.702 61.8327 192.702 62.3876C192.702 62.8426 192.571 63.2494 192.309 63.6079C192.05 63.9663 191.688 64.249 191.223 64.4558C190.758 64.6626 190.216 64.766 189.599 64.766C188.789 64.766 188.119 64.5902 187.588 64.2387C187.057 63.8871 186.721 63.3735 186.58 62.6979L187.738 62.4083C187.848 62.8357 188.057 63.1563 188.364 63.37C188.674 63.5837 189.079 63.6906 189.579 63.6906C190.148 63.6906 190.599 63.5699 190.933 63.3286C191.271 63.0839 191.44 62.7909 191.44 62.4497C191.44 62.1739 191.344 61.943 191.151 61.7568C190.958 61.5672 190.661 61.4259 190.261 61.3328L188.938 61.0226C188.21 60.8503 187.676 60.5831 187.335 60.2212C186.997 59.8558 186.828 59.3991 186.828 58.851C186.828 58.4029 186.954 58.0065 187.206 57.6618C187.461 57.3171 187.807 57.0465 188.245 56.85C188.686 56.6536 189.186 56.5553 189.744 56.5553C190.53 56.5553 191.147 56.7277 191.595 57.0724C192.047 57.4171 192.367 57.8721 192.557 58.4374Z" fill="black"/>
<rect x="91.8406" y="46.9604" width="154.961" height="25.28" rx="4.68002" stroke="#D8D8D8" stroke-width="1.04"/>
<path d="M41.7376 64.5996V54.0105H43.3353V63.2243H48.1335V64.5996H41.7376ZM52.1432 64.7754C51.64 64.7754 51.185 64.6823 50.7782 64.4962C50.3715 64.3066 50.0492 64.0326 49.8113 63.6741C49.5769 63.3156 49.4598 62.8761 49.4598 62.3556C49.4598 61.9075 49.5459 61.5387 49.7183 61.2491C49.8906 60.9596 50.1233 60.7304 50.4163 60.5615C50.7093 60.3926 51.0367 60.265 51.3987 60.1789C51.7606 60.0927 52.1294 60.0272 52.5052 59.9824C52.9808 59.9272 53.3669 59.8824 53.6633 59.8479C53.9598 59.81 54.1752 59.7497 54.3097 59.667C54.4441 59.5842 54.5113 59.4498 54.5113 59.2637V59.2275C54.5113 58.7759 54.3838 58.4261 54.1287 58.1779C53.8771 57.9297 53.5013 57.8056 53.0015 57.8056C52.481 57.8056 52.0708 57.9211 51.771 58.152C51.4745 58.3795 51.2694 58.6329 51.1557 58.9121L49.7028 58.5812C49.8751 58.0986 50.1267 57.7091 50.4577 57.4126C50.792 57.1128 51.1763 56.8956 51.6107 56.7612C52.045 56.6233 52.5017 56.5543 52.9808 56.5543C53.298 56.5543 53.634 56.5923 53.9891 56.6681C54.3476 56.7405 54.6819 56.8749 54.9922 57.0714C55.3058 57.2679 55.5626 57.5488 55.7626 57.9142C55.9625 58.2761 56.0624 58.7466 56.0624 59.3257V64.5996H54.5527V63.5138H54.4906C54.3907 63.7137 54.2407 63.9102 54.0408 64.1032C53.8409 64.2963 53.5841 64.4566 53.2704 64.5841C52.9567 64.7116 52.581 64.7754 52.1432 64.7754ZM52.4793 63.5345C52.9067 63.5345 53.2721 63.45 53.5754 63.2811C53.8822 63.1122 54.1149 62.8916 54.2735 62.6193C54.4355 62.3436 54.5165 62.0488 54.5165 61.7352V60.7114C54.4613 60.7666 54.3545 60.8183 54.1959 60.8665C54.0408 60.9113 53.8633 60.951 53.6633 60.9854C53.4634 61.0165 53.2687 61.0458 53.0791 61.0733C52.8895 61.0975 52.7309 61.1182 52.6034 61.1354C52.3035 61.1733 52.0295 61.2371 51.7813 61.3267C51.5366 61.4163 51.3401 61.5456 51.1919 61.7145C51.0471 61.8799 50.9747 62.1005 50.9747 62.3763C50.9747 62.7589 51.116 63.0485 51.3987 63.2449C51.6813 63.438 52.0415 63.5345 52.4793 63.5345ZM58.2457 64.5996V54.0105H59.7917V57.9452H59.8847C59.9743 57.7798 60.1036 57.5884 60.2725 57.3713C60.4414 57.1541 60.6758 56.9645 60.9757 56.8025C61.2756 56.6371 61.672 56.5543 62.1649 56.5543C62.806 56.5543 63.3782 56.7164 63.8815 57.0404C64.3848 57.3644 64.7794 57.8315 65.0655 58.4416C65.3551 59.0517 65.4999 59.7859 65.4999 60.6442C65.4999 61.5025 65.3568 62.2384 65.0707 62.852C64.7846 63.4621 64.3917 63.9326 63.8918 64.2635C63.392 64.591 62.8216 64.7547 62.1804 64.7547C61.6978 64.7547 61.3032 64.6737 60.9964 64.5117C60.693 64.3497 60.4552 64.1601 60.2828 63.943C60.1105 63.7258 59.9778 63.5328 59.8847 63.3639H59.7555V64.5996H58.2457ZM59.7606 60.6287C59.7606 61.1871 59.8416 61.6766 60.0036 62.0971C60.1657 62.5176 60.4 62.8468 60.7068 63.0847C61.0136 63.3191 61.3893 63.4363 61.834 63.4363C62.2959 63.4363 62.682 63.3139 62.9922 63.0691C63.3024 62.821 63.5368 62.4849 63.6954 62.0609C63.8574 61.6369 63.9384 61.1595 63.9384 60.6287C63.9384 60.1047 63.8591 59.6342 63.7005 59.2171C63.5454 58.8001 63.311 58.4709 62.9973 58.2296C62.6871 57.9883 62.2993 57.8676 61.834 57.8676C61.3859 57.8676 61.0067 57.9831 60.6965 58.2141C60.3897 58.445 60.157 58.7673 59.9985 59.181C59.8399 59.5946 59.7606 60.0772 59.7606 60.6287ZM70.6587 64.7599C69.8762 64.7599 69.2023 64.5927 68.637 64.2584C68.0752 63.9206 67.6409 63.4466 67.3341 62.8365C67.0307 62.2229 66.8791 61.5042 66.8791 60.6804C66.8791 59.8669 67.0307 59.1499 67.3341 58.5295C67.6409 57.909 68.0683 57.4247 68.6164 57.0766C69.1679 56.7284 69.8125 56.5543 70.5501 56.5543C70.9982 56.5543 71.4325 56.6285 71.8531 56.7767C72.2736 56.9249 72.6511 57.1576 72.9854 57.4747C73.3198 57.7918 73.5835 58.2037 73.7765 58.7104C73.9695 59.2137 74.066 59.8255 74.066 60.546V61.094H67.7529V59.9358H72.5511C72.5511 59.5291 72.4684 59.1689 72.3029 58.8552C72.1375 58.5381 71.9048 58.2882 71.6049 58.1055C71.3085 57.9228 70.9603 57.8315 70.5605 57.8315C70.1261 57.8315 69.747 57.9383 69.423 58.152C69.1024 58.3623 68.8542 58.6381 68.6784 58.9793C68.5061 59.3171 68.4199 59.6842 68.4199 60.0806V60.9854C68.4199 61.5163 68.513 61.9678 68.6991 62.3401C68.8887 62.7124 69.1524 62.9968 69.4902 63.1932C69.828 63.3863 70.2227 63.4828 70.6742 63.4828C70.9672 63.4828 71.2343 63.4414 71.4756 63.3587C71.7169 63.2725 71.9255 63.145 72.1013 62.9761C72.2771 62.8072 72.4115 62.5986 72.5046 62.3505L73.9678 62.6141C73.8506 63.045 73.6403 63.4225 73.337 63.7465C73.0371 64.0671 72.6597 64.317 72.2047 64.4962C71.7531 64.672 71.2378 64.7599 70.6587 64.7599ZM77.3273 54.0105V64.5996H75.7814V54.0105H77.3273ZM80.4257 64.6978C80.1431 64.6978 79.9001 64.5979 79.6967 64.398C79.4933 64.1946 79.3916 63.9499 79.3916 63.6638C79.3916 63.3811 79.4933 63.1398 79.6967 62.9399C79.9001 62.7365 80.1431 62.6348 80.4257 62.6348C80.7084 62.6348 80.9514 62.7365 81.1548 62.9399C81.3581 63.1398 81.4598 63.3811 81.4598 63.6638C81.4598 63.8533 81.4116 64.0274 81.315 64.186C81.222 64.3411 81.0979 64.4652 80.9428 64.5582C80.7877 64.6513 80.6153 64.6978 80.4257 64.6978ZM80.4257 58.9173C80.1431 58.9173 79.9001 58.8156 79.6967 58.6122C79.4933 58.4088 79.3916 58.1658 79.3916 57.8832C79.3916 57.6005 79.4933 57.3592 79.6967 57.1593C79.9001 56.9559 80.1431 56.8542 80.4257 56.8542C80.7084 56.8542 80.9514 56.9559 81.1548 57.1593C81.3581 57.3592 81.4598 57.6005 81.4598 57.8832C81.4598 58.0727 81.4116 58.2468 81.315 58.4054C81.222 58.5605 81.0979 58.6846 80.9428 58.7777C80.7877 58.8707 80.6153 58.9173 80.4257 58.9173Z" fill="#6B7280"/>
<path fill-rule="evenodd" clip-rule="evenodd" d="M254.948 59.9602C254.948 56.133 258.054 53.0269 261.881 53.0269C265.708 53.0269 268.815 56.133 268.815 59.9602C268.815 63.7874 265.708 66.8936 261.881 66.8936C258.054 66.8936 254.948 63.7874 254.948 59.9602ZM262.575 62.7339V64.1205H261.188V62.7339H262.575ZM261.881 65.5072C258.824 65.5072 256.335 63.0181 256.335 59.9605C256.335 56.9029 258.824 54.4138 261.881 54.4138C264.939 54.4138 267.428 56.9029 267.428 59.9605C267.428 63.0181 264.939 65.5072 261.881 65.5072ZM259.108 58.5735C259.108 57.0412 260.349 55.8002 261.881 55.8002C263.414 55.8002 264.655 57.0412 264.655 58.5735C264.655 59.463 264.107 59.9417 263.574 60.4077C263.068 60.8499 262.575 61.2807 262.575 62.0402H261.188C261.188 60.7774 261.841 60.2767 262.415 59.8365C262.866 59.4912 263.268 59.1831 263.268 58.5735C263.268 57.8108 262.644 57.1868 261.881 57.1868C261.119 57.1868 260.495 57.8108 260.495 58.5735H259.108Z" fill="#3B82F6"/>
<g filter="url(#filter1_d_810_5191)">
<path d="M207.46 75.7202C207.641 75.5543 207.81 75.3806 207.965 75.1995C208.125 75.3733 208.296 75.5368 208.478 75.6887L208.489 75.6986L208.502 75.7078C208.959 76.0475 209.437 76.3031 209.947 76.4849L209.98 76.4968L210.014 76.5042C210.652 76.6424 211.233 76.6868 211.813 76.6549L212.355 76.6252L212.325 76.0837L212.266 75.0008L212.236 74.4593L211.694 74.489C211.319 74.5096 210.943 74.4831 210.574 74.4102C210.349 74.321 210.079 74.1759 209.831 73.9941C209.504 73.7167 209.224 73.35 209.032 72.9331V69.0863H209.574H210.116V68.5441V67.4812V66.9389H209.574H209.032V62.0385C209.221 61.6238 209.499 61.255 209.847 60.9582C210.068 60.7987 210.337 60.6536 210.625 60.5459C210.929 60.4945 211.308 60.4708 211.686 60.4945L212.227 60.5285L212.261 59.9873L212.329 58.9049L212.363 58.3637L211.822 58.3297C211.241 58.2933 210.659 58.3324 210.088 58.4461L210.052 58.4534L210.017 58.4657C209.434 58.668 208.955 58.9224 208.518 59.2441L208.504 59.2544L208.491 59.2656C208.301 59.4252 208.124 59.595 207.961 59.7742C207.817 59.6066 207.662 59.4472 207.499 59.2968L207.481 59.2805L207.462 59.2658C206.981 58.8971 206.482 58.6392 205.947 58.4736L205.921 58.4658L205.895 58.4605C205.268 58.3317 204.679 58.2919 204.092 58.3298L203.551 58.3647L203.586 58.9059L203.656 59.9882L203.691 60.5293L204.232 60.4944C204.617 60.4696 205.004 60.494 205.383 60.5671C205.604 60.6417 205.857 60.7716 206.088 60.943C206.402 61.24 206.68 61.6319 206.873 62.0719V66.9389H206.331H205.789V67.4812V68.5441V69.0863H206.331H206.873V72.912C206.681 73.3499 206.401 73.7445 206.051 74.0716C205.859 74.2114 205.607 74.3419 205.334 74.4292C205.006 74.49 204.619 74.5148 204.232 74.4897L203.691 74.4545L203.656 74.9957L203.586 76.0779L203.551 76.6191L204.092 76.6542C204.677 76.6923 205.265 76.6531 205.84 76.5377L205.865 76.5326L205.89 76.5251C206.474 76.3481 206.976 76.0916 207.422 75.7514L207.442 75.7366L207.46 75.7202Z" fill="black" stroke="white" stroke-width="1.08455"/>
</g>
<path d="M21 54.4998V59.1717C21 59.7029 21.2094 60.2123 21.5844 60.5873L27.0844 66.0873C27.8656 66.8686 29.1313 66.8686 29.9125 66.0873L34.0844 61.9154C34.8656 61.1342 34.8656 59.8686 34.0844 59.0873L28.5844 53.5873C28.2094 53.2123 27.7 53.0029 27.1687 53.0029H22.5C21.6719 52.9998 21 53.6717 21 54.4998ZM24.5 57.4998C23.9469 57.4998 23.5 57.0529 23.5 56.4998C23.5 55.9467 23.9469 55.4998 24.5 55.4998C25.0531 55.4998 25.5 55.9467 25.5 56.4998C25.5 57.0529 25.0531 57.4998 24.5 57.4998Z" fill="#6B7280"/>
<path d="M-20.9999 80.7598H282.681" stroke="#DCDCDC" stroke-width="1.04"/>
</g>
</g>
</g>
<g clip-path="url(#clip2_810_5191)">
<rect x="355.062" y="16.25" width="279.5" height="130.812" rx="8.125" fill="#F9FAFB"/>
<rect x="355.062" y="16.25" width="279.5" height="130.812" rx="8.125" fill="url(#dots)"/>
<rect x="398.75" y="39.75" width="192.5" height="84.5" rx="8.075" fill="#DBEAFE"/>
<path d="M427.086 63.6158C427.017 63.0039 426.733 62.53 426.233 62.1939C425.733 61.8535 425.104 61.6833 424.346 61.6833C423.803 61.6833 423.333 61.7695 422.937 61.9418C422.54 62.1099 422.232 62.3425 422.012 62.6398C421.797 62.9328 421.689 63.2668 421.689 63.6416C421.689 63.9562 421.763 64.2276 421.909 64.456C422.06 64.6843 422.256 64.8761 422.497 65.0312C422.743 65.182 423.006 65.3091 423.286 65.4125C423.566 65.5116 423.835 65.5935 424.094 65.6581L425.386 65.9942C425.808 66.0976 426.241 66.2376 426.685 66.4143C427.129 66.5909 427.541 66.8236 427.92 67.1123C428.299 67.401 428.605 67.7586 428.837 68.1852C429.074 68.6117 429.193 69.1223 429.193 69.7169C429.193 70.4666 428.999 71.1323 428.611 71.714C428.228 72.2957 427.67 72.7545 426.937 73.0906C426.209 73.4267 425.328 73.5947 424.294 73.5947C423.303 73.5947 422.445 73.4375 421.722 73.1229C420.998 72.8084 420.431 72.3625 420.022 71.7851C419.612 71.2034 419.386 70.514 419.343 69.7169H421.347C421.386 70.1952 421.541 70.5937 421.812 70.9126C422.088 71.2271 422.439 71.4619 422.866 71.617C423.296 71.7679 423.768 71.8433 424.281 71.8433C424.845 71.8433 425.347 71.7549 425.787 71.5783C426.231 71.3973 426.58 71.1474 426.834 70.8286C427.088 70.5054 427.215 70.1284 427.215 69.6975C427.215 69.3054 427.103 68.9844 426.879 68.7345C426.659 68.4846 426.36 68.2778 425.981 68.1141C425.606 67.9503 425.181 67.806 424.708 67.681L423.143 67.2545C422.084 66.9658 421.243 66.5414 420.623 65.9813C420.007 65.4211 419.699 64.68 419.699 63.758C419.699 62.9953 419.905 62.3296 420.319 61.7609C420.733 61.1921 421.293 60.7505 422 60.4359C422.706 60.1171 423.503 59.9577 424.391 59.9577C425.287 59.9577 426.078 60.1149 426.763 60.4295C427.452 60.744 427.995 61.177 428.391 61.7286C428.788 62.2758 428.995 62.9048 429.012 63.6158H427.086ZM436.058 63.4477V64.9989H430.636V63.4477H436.058ZM432.09 61.0693H434.022V70.4602C434.022 70.835 434.078 71.1172 434.19 71.3068C434.302 71.4921 434.447 71.6192 434.623 71.6881C434.804 71.7528 435.001 71.7851 435.212 71.7851C435.367 71.7851 435.502 71.7743 435.619 71.7528C435.735 71.7312 435.826 71.714 435.89 71.7011L436.239 73.2974C436.127 73.3405 435.968 73.3836 435.761 73.4267C435.554 73.4741 435.296 73.5 434.985 73.5043C434.477 73.5129 434.003 73.4224 433.564 73.2328C433.124 73.0432 432.769 72.7502 432.497 72.3538C432.226 71.9574 432.09 71.4598 432.09 70.8609V61.0693ZM441.085 73.5947C440.456 73.5947 439.887 73.4784 439.379 73.2457C438.87 73.0088 438.467 72.6662 438.17 72.2181C437.877 71.77 437.731 71.2206 437.731 70.57C437.731 70.0099 437.838 69.5489 438.054 69.1869C438.269 68.825 438.56 68.5385 438.926 68.3273C439.293 68.1162 439.702 67.9568 440.154 67.8491C440.607 67.7414 441.068 67.6595 441.537 67.6035C442.132 67.5345 442.615 67.4785 442.985 67.4354C443.356 67.388 443.625 67.3126 443.793 67.2092C443.961 67.1058 444.045 66.9378 444.045 66.7051V66.6599C444.045 66.0954 443.886 65.6581 443.567 65.3479C443.252 65.0376 442.783 64.8825 442.158 64.8825C441.507 64.8825 440.994 65.0269 440.62 65.3156C440.249 65.5999 439.993 65.9166 439.851 66.2656L438.034 65.852C438.25 65.2488 438.564 64.7619 438.978 64.3913C439.396 64.0165 439.876 63.745 440.419 63.577C440.962 63.4046 441.533 63.3185 442.132 63.3185C442.528 63.3185 442.948 63.3659 443.392 63.4607C443.84 63.5511 444.258 63.7192 444.646 63.9648C445.038 64.2104 445.359 64.5615 445.609 65.0183C445.859 65.4707 445.984 66.0588 445.984 66.7827V73.375H444.097V72.0178H444.019C443.894 72.2677 443.707 72.5133 443.457 72.7545C443.207 72.9958 442.886 73.1962 442.494 73.3556C442.102 73.515 441.632 73.5947 441.085 73.5947ZM441.505 72.0436C442.039 72.0436 442.496 71.938 442.875 71.7269C443.259 71.5158 443.55 71.24 443.748 70.8996C443.95 70.5549 444.051 70.1866 444.051 69.7945V68.5148C443.983 68.5837 443.849 68.6483 443.651 68.7087C443.457 68.7647 443.235 68.8142 442.985 68.8573C442.735 68.8961 442.492 68.9327 442.255 68.9672C442.018 68.9973 441.82 69.0232 441.66 69.0447C441.285 69.0921 440.943 69.1719 440.633 69.2839C440.327 69.3959 440.081 69.5575 439.896 69.7686C439.715 69.9754 439.624 70.2512 439.624 70.5959C439.624 71.0741 439.801 71.4361 440.154 71.6817C440.508 71.923 440.958 72.0436 441.505 72.0436ZM450.49 67.4807V73.375H448.558V63.4477H450.413V65.0635H450.536C450.764 64.5378 451.122 64.1156 451.608 63.7967C452.1 63.4779 452.718 63.3185 453.463 63.3185C454.14 63.3185 454.732 63.4607 455.241 63.745C455.749 64.0251 456.143 64.443 456.423 64.9989C456.703 65.5547 456.844 66.2419 456.844 67.0606V73.375H454.911V67.2933C454.911 66.5737 454.724 66.0114 454.349 65.6064C453.974 65.1971 453.459 64.9924 452.804 64.9924C452.356 64.9924 451.957 65.0893 451.608 65.2832C451.264 65.4771 450.99 65.7615 450.788 66.1364C450.589 66.5069 450.49 66.955 450.49 67.4807ZM463.151 73.5689C462.35 73.5689 461.635 73.3642 461.006 72.9549C460.381 72.5413 459.89 71.9531 459.532 71.1905C459.179 70.4235 459.002 69.5036 459.002 68.4308C459.002 67.3579 459.181 66.4401 459.539 65.6775C459.901 64.9148 460.396 64.331 461.025 63.926C461.654 63.521 462.367 63.3185 463.164 63.3185C463.781 63.3185 464.276 63.4219 464.651 63.6287C465.03 63.8312 465.323 64.0682 465.53 64.3396C465.741 64.6111 465.905 64.8502 466.021 65.057H466.137V60.1386H468.07V73.375H466.183V71.8303H466.021C465.905 72.0415 465.737 72.2827 465.517 72.5542C465.302 72.8256 465.004 73.0626 464.625 73.2651C464.246 73.4676 463.755 73.5689 463.151 73.5689ZM463.578 71.9208C464.134 71.9208 464.604 71.7743 464.987 71.4813C465.375 71.184 465.668 70.7725 465.866 70.2469C466.068 69.7212 466.17 69.1094 466.17 68.4114C466.17 67.722 466.071 67.1188 465.872 66.6017C465.674 66.0847 465.383 65.6818 465 65.3931C464.616 65.1044 464.142 64.9601 463.578 64.9601C462.996 64.9601 462.512 65.1109 462.124 65.4125C461.736 65.7141 461.443 66.1256 461.245 66.6469C461.051 67.1683 460.954 67.7564 460.954 68.4114C460.954 69.0749 461.053 69.6717 461.251 70.2016C461.45 70.7316 461.743 71.1517 462.13 71.4619C462.522 71.7679 463.005 71.9208 463.578 71.9208ZM473.717 73.5947C473.088 73.5947 472.519 73.4784 472.011 73.2457C471.502 73.0088 471.099 72.6662 470.802 72.2181C470.509 71.77 470.363 71.2206 470.363 70.57C470.363 70.0099 470.47 69.5489 470.686 69.1869C470.901 68.825 471.192 68.5385 471.558 68.3273C471.925 68.1162 472.334 67.9568 472.786 67.8491C473.239 67.7414 473.7 67.6595 474.169 67.6035C474.764 67.5345 475.247 67.4785 475.617 67.4354C475.988 67.388 476.257 67.3126 476.425 67.2092C476.593 67.1058 476.677 66.9378 476.677 66.7051V66.6599C476.677 66.0954 476.518 65.6581 476.199 65.3479C475.884 65.0376 475.415 64.8825 474.79 64.8825C474.139 64.8825 473.626 65.0269 473.252 65.3156C472.881 65.5999 472.625 65.9166 472.483 66.2656L470.666 65.852C470.882 65.2488 471.196 64.7619 471.61 64.3913C472.028 64.0165 472.508 63.745 473.051 63.577C473.594 63.4046 474.165 63.3185 474.764 63.3185C475.16 63.3185 475.58 63.3659 476.024 63.4607C476.472 63.5511 476.89 63.7192 477.278 63.9648C477.67 64.2104 477.991 64.5615 478.241 65.0183C478.491 65.4707 478.616 66.0588 478.616 66.7827V73.375H476.729V72.0178H476.651C476.526 72.2677 476.339 72.5133 476.089 72.7545C475.839 72.9958 475.518 73.1962 475.126 73.3556C474.734 73.515 474.264 73.5947 473.717 73.5947ZM474.137 72.0436C474.671 72.0436 475.128 71.938 475.507 71.7269C475.891 71.5158 476.182 71.24 476.38 70.8996C476.582 70.5549 476.684 70.1866 476.684 69.7945V68.5148C476.615 68.5837 476.481 68.6483 476.283 68.7087C476.089 68.7647 475.867 68.8142 475.617 68.8573C475.367 68.8961 475.124 68.9327 474.887 68.9672C474.65 68.9973 474.452 69.0232 474.292 69.0447C473.917 69.0921 473.575 69.1719 473.265 69.2839C472.959 69.3959 472.713 69.5575 472.528 69.7686C472.347 69.9754 472.256 70.2512 472.256 70.5959C472.256 71.0741 472.433 71.4361 472.786 71.6817C473.14 71.923 473.59 72.0436 474.137 72.0436ZM481.19 73.375V63.4477H483.058V65.0247H483.161C483.342 64.4904 483.661 64.0703 484.118 63.7644C484.579 63.4542 485.1 63.2991 485.682 63.2991C485.802 63.2991 485.945 63.3034 486.108 63.312C486.276 63.3206 486.408 63.3314 486.503 63.3443V65.1928C486.425 65.1712 486.287 65.1475 486.089 65.1217C485.891 65.0915 485.693 65.0764 485.494 65.0764C485.038 65.0764 484.63 65.1734 484.273 65.3673C483.919 65.5568 483.639 65.8218 483.433 66.1622C483.226 66.4983 483.122 66.8818 483.122 67.3126V73.375H481.19ZM491.536 73.5689C490.734 73.5689 490.019 73.3642 489.39 72.9549C488.765 72.5413 488.274 71.9531 487.916 71.1905C487.563 70.4235 487.386 69.5036 487.386 68.4308C487.386 67.3579 487.565 66.4401 487.923 65.6775C488.285 64.9148 488.78 64.331 489.409 63.926C490.038 63.521 490.751 63.3185 491.549 63.3185C492.165 63.3185 492.66 63.4219 493.035 63.6287C493.414 63.8312 493.707 64.0682 493.914 64.3396C494.125 64.6111 494.289 64.8502 494.405 65.057H494.522V60.1386H496.454V73.375H494.567V71.8303H494.405C494.289 72.0415 494.121 72.2827 493.901 72.5542C493.686 72.8256 493.388 73.0626 493.009 73.2651C492.63 73.4676 492.139 73.5689 491.536 73.5689ZM491.962 71.9208C492.518 71.9208 492.988 71.7743 493.371 71.4813C493.759 71.184 494.052 70.7725 494.25 70.2469C494.453 69.7212 494.554 69.1094 494.554 68.4114C494.554 67.722 494.455 67.1188 494.257 66.6017C494.058 66.0847 493.768 65.6818 493.384 65.3931C493.001 65.1044 492.527 64.9601 491.962 64.9601C491.381 64.9601 490.896 65.1109 490.508 65.4125C490.12 65.7141 489.827 66.1256 489.629 66.6469C489.435 67.1683 489.338 67.7564 489.338 68.4114C489.338 69.0749 489.437 69.6717 489.636 70.2016C489.834 70.7316 490.127 71.1517 490.514 71.4619C490.907 71.7679 491.389 71.9208 491.962 71.9208ZM506.181 60.1386V73.375H504.184V60.1386H506.181ZM513.975 59.5182L509.71 75.3656H507.984L512.25 59.5182H513.975ZM527.27 66.7568C527.27 68.1701 527.011 69.3851 526.494 70.402C525.977 71.4145 525.269 72.1944 524.368 72.7416C523.472 73.2845 522.453 73.556 521.311 73.556C520.165 73.556 519.142 73.2845 518.241 72.7416C517.345 72.1944 516.638 71.4124 516.121 70.3955C515.604 69.3787 515.346 68.1658 515.346 66.7568C515.346 65.3436 515.604 64.1307 516.121 63.1181C516.638 62.1013 517.345 61.3214 518.241 60.7785C519.142 60.2313 520.165 59.9577 521.311 59.9577C522.453 59.9577 523.472 60.2313 524.368 60.7785C525.269 61.3214 525.977 62.1013 526.494 63.1181C527.011 64.1307 527.27 65.3436 527.27 66.7568ZM525.292 66.7568C525.292 65.6796 525.118 64.7727 524.769 64.0359C524.424 63.2948 523.95 62.7346 523.347 62.3555C522.748 61.972 522.069 61.7803 521.311 61.7803C520.548 61.7803 519.868 61.972 519.269 62.3555C518.67 62.7346 518.196 63.2948 517.847 64.0359C517.502 64.7727 517.33 65.6796 517.33 66.7568C517.33 67.834 517.502 68.7431 517.847 69.4842C518.196 70.221 518.67 70.7812 519.269 71.1646C519.868 71.5438 520.548 71.7334 521.311 71.7334C522.069 71.7334 522.748 71.5438 523.347 71.1646C523.95 70.7812 524.424 70.221 524.769 69.4842C525.118 68.7431 525.292 67.834 525.292 66.7568ZM533.924 61.8578V60.1386H544.168V61.8578H540.038V73.375H538.047V61.8578H533.924ZM549.115 73.5754C548.137 73.5754 547.295 73.3664 546.588 72.9484C545.886 72.5262 545.343 71.9337 544.959 71.1711C544.58 70.4041 544.391 69.5058 544.391 68.476C544.391 67.4591 544.58 66.5629 544.959 65.7874C545.343 65.0118 545.877 64.4064 546.562 63.9712C547.252 63.5361 548.057 63.3185 548.979 63.3185C549.54 63.3185 550.082 63.4111 550.608 63.5964C551.134 63.7817 551.606 64.0725 552.024 64.4689C552.441 64.8653 552.771 65.3802 553.012 66.0136C553.254 66.6426 553.374 67.4074 553.374 68.308V68.993H545.483V67.5453H551.481C551.481 67.0369 551.377 66.5866 551.17 66.1945C550.964 65.7981 550.673 65.4857 550.298 65.2574C549.927 65.029 549.492 64.9148 548.992 64.9148C548.449 64.9148 547.975 65.0484 547.57 65.3156C547.17 65.5784 546.86 65.9231 546.64 66.3496C546.424 66.7719 546.317 67.2308 546.317 67.7263V68.8573C546.317 69.5209 546.433 70.0853 546.666 70.5506C546.903 71.016 547.232 71.3714 547.654 71.617C548.077 71.8583 548.57 71.979 549.135 71.979C549.501 71.979 549.835 71.9273 550.136 71.8239C550.438 71.7161 550.699 71.5567 550.918 71.3456C551.138 71.1345 551.306 70.8738 551.422 70.5636L553.251 70.8932C553.105 71.4318 552.842 71.9036 552.463 72.3086C552.088 72.7093 551.616 73.0217 551.048 73.2457C550.483 73.4655 549.839 73.5754 549.115 73.5754ZM562.957 65.8714L561.206 66.1816C561.133 65.9576 561.016 65.7443 560.857 65.5418C560.702 65.3393 560.491 65.1734 560.224 65.0441C559.956 64.9148 559.622 64.8502 559.222 64.8502C558.675 64.8502 558.218 64.973 557.852 65.2186C557.485 65.4599 557.302 65.7723 557.302 66.1558C557.302 66.4875 557.425 66.7547 557.671 66.9572C557.916 67.1597 558.313 67.3256 558.86 67.4548L560.437 67.8168C561.35 68.0279 562.031 68.3532 562.479 68.7927C562.927 69.2322 563.151 69.8031 563.151 70.5054C563.151 71.1 562.979 71.63 562.634 72.0953C562.294 72.5563 561.818 72.9183 561.206 73.1811C560.598 73.4439 559.894 73.5754 559.092 73.5754C557.981 73.5754 557.074 73.3384 556.372 72.8644C555.669 72.3862 555.238 71.7075 555.079 70.8286L556.947 70.5442C557.063 71.0311 557.302 71.3995 557.664 71.6494C558.026 71.895 558.498 72.0178 559.08 72.0178C559.713 72.0178 560.219 71.8863 560.598 71.6235C560.978 71.3564 561.167 71.0311 561.167 70.6476C561.167 70.3374 561.051 70.0767 560.818 69.8656C560.59 69.6544 560.239 69.495 559.765 69.3873L558.084 69.0189C557.158 68.8078 556.473 68.4717 556.029 68.0107C555.59 67.5496 555.37 66.9658 555.37 66.2592C555.37 65.6732 555.533 65.1604 555.861 64.721C556.188 64.2815 556.641 63.9389 557.218 63.6933C557.796 63.4434 558.457 63.3185 559.202 63.3185C560.275 63.3185 561.12 63.5511 561.736 64.0165C562.352 64.4775 562.759 65.0958 562.957 65.8714ZM569.91 63.4477V64.9989H564.488V63.4477H569.91ZM565.942 61.0693H567.874V70.4602C567.874 70.835 567.93 71.1172 568.042 71.3068C568.154 71.4921 568.299 71.6192 568.475 71.6881C568.656 71.7528 568.852 71.7851 569.063 71.7851C569.218 71.7851 569.354 71.7743 569.471 71.7528C569.587 71.7312 569.677 71.714 569.742 71.7011L570.091 73.2974C569.979 73.3405 569.82 73.3836 569.613 73.4267C569.406 73.4741 569.147 73.5 568.837 73.5043C568.329 73.5129 567.855 73.4224 567.415 73.2328C566.976 73.0432 566.62 72.7502 566.349 72.3538C566.077 71.9574 565.942 71.4598 565.942 70.8609V61.0693Z" fill="black"/>
<rect x="398.75" y="39.75" width="192.5" height="84.5" rx="8.075" stroke="#111827" stroke-width="2.5"/>
<circle cx="399.587" cy="82.1246" r="6.825" fill="#234580" stroke="white" stroke-width="2.275"/>
<circle cx="589.55" cy="82.1246" r="6.825" fill="#234580" stroke="white" stroke-width="2.275"/>
<path d="M440 92.9998V97.6717C440 98.2029 440.209 98.7123 440.584 99.0873L446.084 104.587C446.866 105.369 448.131 105.369 448.913 104.587L453.084 100.415C453.866 99.6342 453.866 98.3686 453.084 97.5873L447.584 92.0873C447.209 91.7123 446.7 91.5029 446.169 91.5029H441.5C440.672 91.4998 440 92.1717 440 92.9998ZM443.5 95.9998C442.947 95.9998 442.5 95.5529 442.5 94.9998C442.5 94.4467 442.947 93.9998 443.5 93.9998C444.053 93.9998 444.5 94.4467 444.5 94.9998C444.5 95.5529 444.053 95.9998 443.5 95.9998Z" fill="#6B7280"/>
<path d="M464.247 99.4062V104H463.074V93.8182H464.247V97.5568H464.347C464.526 97.1624 464.794 96.8492 465.152 96.6172C465.513 96.3819 465.994 96.2642 466.594 96.2642C467.114 96.2642 467.57 96.3686 467.961 96.5774C468.352 96.7829 468.655 97.0994 468.871 97.527C469.089 97.9512 469.199 98.4915 469.199 99.1477V104H468.026V99.2273C468.026 98.6207 467.868 98.1518 467.553 97.8203C467.242 97.4856 466.809 97.3182 466.256 97.3182C465.871 97.3182 465.527 97.3994 465.222 97.5618C464.92 97.7242 464.681 97.9612 464.506 98.2727C464.333 98.5843 464.247 98.9621 464.247 99.4062ZM471.345 104V96.3636H472.519V104H471.345ZM471.942 95.0909C471.713 95.0909 471.516 95.013 471.35 94.8572C471.188 94.7015 471.107 94.5142 471.107 94.2955C471.107 94.0767 471.188 93.8894 471.35 93.7337C471.516 93.5779 471.713 93.5 471.942 93.5C472.171 93.5 472.366 93.5779 472.529 93.7337C472.694 93.8894 472.777 94.0767 472.777 94.2955C472.777 94.5142 472.694 94.7015 472.529 94.8572C472.366 95.013 472.171 95.0909 471.942 95.0909ZM477.551 104.159C476.915 104.159 476.353 103.998 475.866 103.677C475.379 103.352 474.997 102.895 474.722 102.305C474.447 101.711 474.31 101.01 474.31 100.202C474.31 99.3996 474.447 98.7036 474.722 98.1136C474.997 97.5237 475.38 97.0679 475.871 96.7464C476.361 96.425 476.928 96.2642 477.571 96.2642C478.068 96.2642 478.461 96.3471 478.749 96.5128C479.041 96.6752 479.263 96.8608 479.415 97.0696C479.571 97.2751 479.692 97.4441 479.778 97.5767H479.878V93.8182H481.051V104H479.918V102.827H479.778C479.692 102.966 479.57 103.142 479.411 103.354C479.251 103.562 479.024 103.75 478.729 103.915C478.434 104.078 478.042 104.159 477.551 104.159ZM477.71 103.105C478.181 103.105 478.579 102.982 478.903 102.737C479.228 102.489 479.475 102.146 479.644 101.708C479.813 101.267 479.898 100.759 479.898 100.182C479.898 99.6117 479.815 99.1129 479.649 98.6854C479.483 98.2545 479.238 97.9197 478.913 97.6811C478.589 97.4392 478.188 97.3182 477.71 97.3182C477.213 97.3182 476.799 97.4458 476.467 97.701C476.139 97.9529 475.892 98.2959 475.727 98.7301C475.564 99.161 475.483 99.6449 475.483 100.182C475.483 100.725 475.566 101.219 475.732 101.663C475.901 102.104 476.149 102.455 476.477 102.717C476.809 102.976 477.22 103.105 477.71 103.105ZM486.246 104.159C485.61 104.159 485.048 103.998 484.561 103.677C484.074 103.352 483.693 102.895 483.418 102.305C483.143 101.711 483.005 101.01 483.005 100.202C483.005 99.3996 483.143 98.7036 483.418 98.1136C483.693 97.5237 484.076 97.0679 484.566 96.7464C485.057 96.425 485.623 96.2642 486.266 96.2642C486.763 96.2642 487.156 96.3471 487.445 96.5128C487.736 96.6752 487.958 96.8608 488.111 97.0696C488.267 97.2751 488.388 97.4441 488.474 97.5767H488.573V93.8182H489.746V104H488.613V102.827H488.474C488.388 102.966 488.265 103.142 488.106 103.354C487.947 103.562 487.72 103.75 487.425 103.915C487.13 104.078 486.737 104.159 486.246 104.159ZM486.406 103.105C486.876 103.105 487.274 102.982 487.599 102.737C487.924 102.489 488.17 102.146 488.339 101.708C488.509 101.267 488.593 100.759 488.593 100.182C488.593 99.6117 488.51 99.1129 488.344 98.6854C488.179 98.2545 487.933 97.9197 487.609 97.6811C487.284 97.4392 486.883 97.3182 486.406 97.3182C485.908 97.3182 485.494 97.4458 485.163 97.701C484.835 97.9529 484.588 98.2959 484.422 98.7301C484.259 99.161 484.178 99.6449 484.178 100.182C484.178 100.725 484.261 101.219 484.427 101.663C484.596 102.104 484.844 102.455 485.173 102.717C485.504 102.976 485.915 103.105 486.406 103.105ZM495.26 104.159C494.524 104.159 493.889 103.997 493.356 103.672C492.826 103.344 492.416 102.886 492.128 102.3C491.843 101.71 491.7 101.024 491.7 100.241C491.7 99.4593 491.843 98.7699 492.128 98.1733C492.416 97.5734 492.817 97.1061 493.331 96.7713C493.848 96.4332 494.451 96.2642 495.141 96.2642C495.538 96.2642 495.931 96.3305 496.319 96.4631C496.707 96.5956 497.06 96.8111 497.378 97.1094C497.696 97.4044 497.95 97.7955 498.138 98.2827C498.327 98.7699 498.422 99.3698 498.422 100.082V100.58H492.536V99.5653H497.229C497.229 99.1345 497.143 98.75 496.97 98.4119C496.801 98.0739 496.559 97.8071 496.244 97.6115C495.933 97.416 495.565 97.3182 495.141 97.3182C494.673 97.3182 494.269 97.4342 493.928 97.6662C493.589 97.8949 493.329 98.1932 493.147 98.5611C492.965 98.929 492.874 99.3234 492.874 99.7443V100.42C492.874 100.997 492.973 101.486 493.172 101.887C493.374 102.285 493.654 102.588 494.012 102.797C494.37 103.002 494.786 103.105 495.26 103.105C495.568 103.105 495.847 103.062 496.095 102.976C496.347 102.886 496.564 102.754 496.746 102.578C496.929 102.399 497.07 102.177 497.169 101.912L498.303 102.23C498.183 102.615 497.983 102.953 497.701 103.244C497.419 103.533 497.071 103.758 496.657 103.92C496.243 104.08 495.777 104.159 495.26 104.159ZM501.38 99.4062V104H500.207V96.3636H501.34V97.5568H501.44C501.619 97.169 501.89 96.8575 502.255 96.6222C502.62 96.3835 503.09 96.2642 503.667 96.2642C504.184 96.2642 504.636 96.3703 505.024 96.5824C505.412 96.7912 505.714 97.1094 505.929 97.5369C506.144 97.9612 506.252 98.4981 506.252 99.1477V104H505.079V99.2273C505.079 98.6274 504.923 98.16 504.612 97.8253C504.3 97.4872 503.872 97.3182 503.329 97.3182C502.954 97.3182 502.62 97.3994 502.325 97.5618C502.033 97.7242 501.803 97.9612 501.634 98.2727C501.464 98.5843 501.38 98.9621 501.38 99.4062ZM516.748 97H515.515C515.443 96.6454 515.315 96.3338 515.133 96.0653C514.954 95.7969 514.735 95.5715 514.476 95.3892C514.221 95.2036 513.938 95.0644 513.626 94.9716C513.315 94.8788 512.99 94.8324 512.652 94.8324C512.035 94.8324 511.477 94.9882 510.976 95.2997C510.479 95.6113 510.083 96.0703 509.788 96.6768C509.497 97.2834 509.351 98.0275 509.351 98.9091C509.351 99.7907 509.497 100.535 509.788 101.141C510.083 101.748 510.479 102.207 510.976 102.518C511.477 102.83 512.035 102.986 512.652 102.986C512.99 102.986 513.315 102.939 513.626 102.847C513.938 102.754 514.221 102.616 514.476 102.434C514.735 102.248 514.954 102.021 515.133 101.753C515.315 101.481 515.443 101.17 515.515 100.818H516.748C516.656 101.339 516.487 101.804 516.241 102.215C515.996 102.626 515.691 102.976 515.327 103.264C514.962 103.549 514.553 103.766 514.099 103.915C513.648 104.065 513.166 104.139 512.652 104.139C511.783 104.139 511.011 103.927 510.335 103.503C509.659 103.079 509.127 102.475 508.739 101.693C508.351 100.911 508.157 99.983 508.157 98.9091C508.157 97.8352 508.351 96.9072 508.739 96.125C509.127 95.3428 509.659 94.7396 510.335 94.3153C511.011 93.8911 511.783 93.679 512.652 93.679C513.166 93.679 513.648 93.7536 514.099 93.9027C514.553 94.0518 514.962 94.2706 515.327 94.5589C515.691 94.844 515.996 95.192 516.241 95.603C516.487 96.0107 516.656 96.4763 516.748 97ZM520.829 104.179C520.345 104.179 519.906 104.088 519.511 103.906C519.117 103.72 518.804 103.453 518.572 103.105C518.34 102.754 518.224 102.33 518.224 101.832C518.224 101.395 518.31 101.04 518.482 100.768C518.655 100.493 518.885 100.278 519.173 100.122C519.462 99.9664 519.78 99.8504 520.128 99.7741C520.479 99.6946 520.832 99.6316 521.187 99.5852C521.651 99.5256 522.027 99.4808 522.315 99.451C522.607 99.4179 522.819 99.3632 522.952 99.2869C523.088 99.2107 523.156 99.0781 523.156 98.8892V98.8494C523.156 98.3589 523.021 97.9777 522.753 97.706C522.488 97.4342 522.085 97.2983 521.545 97.2983C520.985 97.2983 520.545 97.4209 520.227 97.6662C519.909 97.9115 519.685 98.1733 519.556 98.4517L518.442 98.054C518.641 97.59 518.906 97.2287 519.238 96.9702C519.573 96.7083 519.937 96.526 520.332 96.4233C520.729 96.3172 521.121 96.2642 521.505 96.2642C521.75 96.2642 522.032 96.294 522.35 96.3537C522.672 96.41 522.982 96.5277 523.28 96.7067C523.581 96.8857 523.832 97.1558 524.031 97.517C524.229 97.8783 524.329 98.3622 524.329 98.9688V104H523.156V102.966H523.096C523.016 103.132 522.884 103.309 522.698 103.498C522.513 103.687 522.266 103.848 521.957 103.98C521.649 104.113 521.273 104.179 520.829 104.179ZM521.008 103.125C521.472 103.125 521.863 103.034 522.181 102.852C522.503 102.669 522.745 102.434 522.907 102.146C523.073 101.857 523.156 101.554 523.156 101.236V100.162C523.106 100.222 522.996 100.276 522.827 100.326C522.662 100.372 522.469 100.414 522.251 100.45C522.035 100.483 521.825 100.513 521.619 100.54C521.417 100.563 521.253 100.583 521.127 100.599C520.822 100.639 520.537 100.704 520.272 100.793C520.01 100.879 519.798 101.01 519.636 101.186C519.477 101.358 519.397 101.594 519.397 101.892C519.397 102.3 519.548 102.608 519.849 102.817C520.154 103.022 520.54 103.125 521.008 103.125ZM531.879 98.0739L530.825 98.3722C530.759 98.1965 530.661 98.0258 530.532 97.8601C530.406 97.6911 530.234 97.5518 530.015 97.4425C529.796 97.3331 529.516 97.2784 529.175 97.2784C528.708 97.2784 528.318 97.3861 528.007 97.6016C527.698 97.8137 527.544 98.0838 527.544 98.4119C527.544 98.7036 527.65 98.9339 527.862 99.103C528.075 99.272 528.406 99.4129 528.857 99.5256L529.99 99.804C530.673 99.9697 531.182 100.223 531.517 100.565C531.851 100.903 532.019 101.339 532.019 101.872C532.019 102.31 531.893 102.701 531.641 103.045C531.392 103.39 531.044 103.662 530.597 103.861C530.149 104.06 529.629 104.159 529.036 104.159C528.257 104.159 527.612 103.99 527.102 103.652C526.591 103.314 526.268 102.82 526.132 102.17L527.246 101.892C527.352 102.303 527.552 102.611 527.847 102.817C528.146 103.022 528.535 103.125 529.016 103.125C529.563 103.125 529.997 103.009 530.318 102.777C530.643 102.542 530.806 102.26 530.806 101.932C530.806 101.667 530.713 101.445 530.527 101.266C530.342 101.083 530.057 100.947 529.672 100.858L528.399 100.56C527.7 100.394 527.186 100.137 526.858 99.7891C526.533 99.4377 526.371 98.9986 526.371 98.4716C526.371 98.0407 526.492 97.6596 526.734 97.3281C526.979 96.9967 527.312 96.7365 527.733 96.5476C528.157 96.3587 528.638 96.2642 529.175 96.2642C529.931 96.2642 530.524 96.4299 530.955 96.7614C531.389 97.0928 531.697 97.5303 531.879 98.0739ZM536.987 104.159C536.251 104.159 535.616 103.997 535.082 103.672C534.552 103.344 534.143 102.886 533.854 102.3C533.569 101.71 533.427 101.024 533.427 100.241C533.427 99.4593 533.569 98.7699 533.854 98.1733C534.143 97.5734 534.544 97.1061 535.058 96.7713C535.575 96.4332 536.178 96.2642 536.867 96.2642C537.265 96.2642 537.658 96.3305 538.045 96.4631C538.433 96.5956 538.786 96.8111 539.104 97.1094C539.423 97.4044 539.676 97.7955 539.865 98.2827C540.054 98.7699 540.148 99.3698 540.148 100.082V100.58H534.262V99.5653H538.955C538.955 99.1345 538.869 98.75 538.697 98.4119C538.528 98.0739 538.286 97.8071 537.971 97.6115C537.659 97.416 537.291 97.3182 536.867 97.3182C536.4 97.3182 535.996 97.4342 535.654 97.6662C535.316 97.8949 535.056 98.1932 534.874 98.5611C534.691 98.929 534.6 99.3234 534.6 99.7443V100.42C534.6 100.997 534.7 101.486 534.898 101.887C535.101 102.285 535.381 102.588 535.739 102.797C536.097 103.002 536.513 103.105 536.987 103.105C537.295 103.105 537.573 103.062 537.822 102.976C538.074 102.886 538.291 102.754 538.473 102.578C538.655 102.399 538.796 102.177 538.896 101.912L540.029 102.23C539.91 102.615 539.709 102.953 539.428 103.244C539.146 103.533 538.798 103.758 538.384 103.92C537.969 104.08 537.504 104.159 536.987 104.159ZM547.342 98.0739L546.288 98.3722C546.222 98.1965 546.124 98.0258 545.995 97.8601C545.869 97.6911 545.697 97.5518 545.478 97.4425C545.259 97.3331 544.979 97.2784 544.638 97.2784C544.17 97.2784 543.781 97.3861 543.469 97.6016C543.161 97.8137 543.007 98.0838 543.007 98.4119C543.007 98.7036 543.113 98.9339 543.325 99.103C543.537 99.272 543.869 99.4129 544.32 99.5256L545.453 99.804C546.136 99.9697 546.645 100.223 546.979 100.565C547.314 100.903 547.482 101.339 547.482 101.872C547.482 102.31 547.356 102.701 547.104 103.045C546.855 103.39 546.507 103.662 546.06 103.861C545.612 104.06 545.092 104.159 544.499 104.159C543.72 104.159 543.075 103.99 542.565 103.652C542.054 103.314 541.731 102.82 541.595 102.17L542.709 101.892C542.815 102.303 543.015 102.611 543.31 102.817C543.609 103.022 543.998 103.125 544.479 103.125C545.026 103.125 545.46 103.009 545.781 102.777C546.106 102.542 546.268 102.26 546.268 101.932C546.268 101.667 546.176 101.445 545.99 101.266C545.804 101.083 545.519 100.947 545.135 100.858L543.862 100.56C543.163 100.394 542.649 100.137 542.321 99.7891C541.996 99.4377 541.834 98.9986 541.834 98.4716C541.834 98.0407 541.955 97.6596 542.197 97.3281C542.442 96.9967 542.775 96.7365 543.196 96.5476C543.62 96.3587 544.101 96.2642 544.638 96.2642C545.393 96.2642 545.987 96.4299 546.418 96.7614C546.852 97.0928 547.16 97.5303 547.342 98.0739Z" fill="#4B5563"/>
</g>
<path d="M424.704 99.9952C425.253 99.6067 425.384 98.8461 424.995 98.2965L418.664 89.3397C418.275 88.79 417.515 88.6594 416.965 89.048C416.415 89.4365 416.285 90.197 416.673 90.7467L422.301 98.7083L414.34 104.336C413.79 104.725 413.659 105.485 414.048 106.035C414.437 106.585 415.197 106.715 415.747 106.327L424.704 99.9952ZM225.794 66.2012L423.794 100.201L424.206 97.7988L226.206 63.7988L225.794 66.2012Z" fill="#D80F0F"/>
<defs>
<filter id="filter0_d_810_5191" x="-23.08" y="33.96" width="307.841" height="135.201" filterUnits="userSpaceOnUse" color-interpolation-filters="sRGB">
<feFlood flood-opacity="0" result="BackgroundImageFix"/>
<feColorMatrix in="SourceAlpha" type="matrix" values="0 0 0 0 0 0 0 0 0 0 0 0 0 0 0 0 0 0 127 0" result="hardAlpha"/>
<feOffset dy="1.04"/>
<feGaussianBlur stdDeviation="1.04"/>
<feComposite in2="hardAlpha" operator="out"/>
<feColorMatrix type="matrix" values="0 0 0 0 0 0 0 0 0 0 0 0 0 0 0 0 0 0 0.1 0"/>
<feBlend mode="normal" in2="BackgroundImageFix" result="effect1_dropShadow_810_5191"/>
<feBlend mode="normal" in="SourceGraphic" in2="effect1_dropShadow_810_5191" result="shape"/>
</filter>
<filter id="filter1_d_810_5191" x="193.048" y="54.1324" width="29.9337" height="29.9337" filterUnits="userSpaceOnUse" color-interpolation-filters="sRGB">
<feFlood flood-opacity="0" result="BackgroundImageFix"/>
<feColorMatrix in="SourceAlpha" type="matrix" values="0 0 0 0 0 0 0 0 0 0 0 0 0 0 0 0 0 0 127 0" result="hardAlpha"/>
<feOffset dy="1.08455"/>
<feGaussianBlur stdDeviation="0.976098"/>
<feColorMatrix type="matrix" values="0 0 0 0 0 0 0 0 0 0 0 0 0 0 0 0 0 0 0.65 0"/>
<feBlend mode="normal" in2="BackgroundImageFix" result="effect1_dropShadow_810_5191"/>
<feBlend mode="normal" in="SourceGraphic" in2="effect1_dropShadow_810_5191" result="shape"/>
</filter>
<clipPath id="clip0_810_5191">
<rect x="13.8125" y="15.4375" width="281.125" height="136.5" rx="4.0625" fill="white"/>
</clipPath>
<clipPath id="clip1_810_5191">
<rect x="-21" y="35" width="303.681" height="131.041" rx="6.24003" fill="white"/>
</clipPath>
<clipPath id="clip2_810_5191">
<rect x="355.062" y="16.25" width="279.5" height="130.812" rx="8.125" fill="white"/>
</clipPath>
</defs>
</svg>
