<svg width="186" height="120" viewBox="0 0 186 120" fill="none" xmlns="http://www.w3.org/2000/svg">
<path d="M181.447 120H4.6169C3.40981 119.999 2.25254 119.518 1.399 118.664C0.545449 117.81 0.0653291 116.652 0.0639648 115.444V6.3222C0.0649486 5.43718 0.416677 4.5887 1.04198 3.96288C1.66729 3.33707 2.51511 2.98503 3.39944 2.98401H182.607C183.506 2.98503 184.369 3.34315 185.005 3.97978C185.641 4.61642 185.999 5.47959 186 6.37991V115.444C185.999 116.652 185.519 117.81 184.665 118.664C183.811 119.518 182.654 119.999 181.447 120Z" fill="#F2F2F2"/>
<path d="M175.73 114.247H10.9286C8.51274 114.247 6.54736 112.405 6.54736 110.141V15.1171C6.54736 13.4381 8.00376 12.072 9.79393 12.072H176.811C178.63 12.072 180.111 13.4606 180.111 15.1672V110.141C180.111 112.405 178.145 114.247 175.73 114.247Z" fill="white"/>
<path d="M185.937 6.88997H0V4.57021C0.00175044 3.35816 0.483831 2.19631 1.34048 1.33952C2.19713 0.48274 3.35838 0.00100501 4.56949 0H181.367C182.578 0.000994788 183.739 0.482726 184.596 1.33951C185.453 2.19629 185.935 3.35816 185.937 4.57021V6.88997Z" fill="#3F3D56"/>
<path d="M8.30451 4.63477C8.95728 4.63477 9.48645 4.10518 9.48645 3.45191C9.48645 2.79863 8.95728 2.26904 8.30451 2.26904C7.65173 2.26904 7.12256 2.79863 7.12256 3.45191C7.12256 4.10518 7.65173 4.63477 8.30451 4.63477Z" fill="white"/>
<path d="M12.7908 4.63477C13.4436 4.63477 13.9728 4.10518 13.9728 3.45191C13.9728 2.79863 13.4436 2.26904 12.7908 2.26904C12.1381 2.26904 11.6089 2.79863 11.6089 3.45191C11.6089 4.10518 12.1381 4.63477 12.7908 4.63477Z" fill="white"/>
<path d="M17.2772 4.63477C17.9299 4.63477 18.4591 4.10518 18.4591 3.45191C18.4591 2.79863 17.9299 2.26904 17.2772 2.26904C16.6244 2.26904 16.0952 2.79863 16.0952 3.45191C16.0952 4.10518 16.6244 4.63477 17.2772 4.63477Z" fill="white"/>
<path d="M89.4193 32.8491H57.1878C56.7073 32.8491 56.2464 32.6581 55.9066 32.318C55.5669 31.978 55.376 31.5168 55.376 31.0359C55.376 30.555 55.5669 30.0938 55.9066 29.7537C56.2464 29.4137 56.7073 29.2227 57.1878 29.2227H89.4193C89.8999 29.2227 90.3607 29.4137 90.7005 29.7537C91.0403 30.0938 91.2312 30.555 91.2312 31.0359C91.2312 31.5168 91.0403 31.978 90.7005 32.318C90.3607 32.6581 89.8999 32.8491 89.4193 32.8491Z" fill="#CCCCCC"/>
<path d="M129.47 32.8491H97.2388C96.7583 32.8491 96.2975 32.6581 95.9577 32.318C95.6179 31.978 95.427 31.5168 95.427 31.0359C95.427 30.555 95.6179 30.0938 95.9577 29.7537C96.2975 29.4137 96.7583 29.2227 97.2388 29.2227H129.47C129.951 29.2227 130.412 29.4137 130.752 29.7537C131.091 30.0938 131.282 30.555 131.282 31.0359C131.282 31.5168 131.091 31.978 130.752 32.318C130.412 32.6581 129.951 32.8491 129.47 32.8491Z" fill="#CCCCCC"/>
<path d="M129.47 39.7203H73.399C72.9185 39.7203 72.4576 39.5293 72.1178 39.1892C71.778 38.8492 71.5872 38.388 71.5872 37.9071C71.5872 37.4262 71.778 36.965 72.1178 36.625C72.4576 36.2849 72.9185 36.0939 73.399 36.0939H129.47C129.951 36.0939 130.412 36.2849 130.752 36.625C131.091 36.965 131.282 37.4262 131.282 37.9071C131.282 38.388 131.091 38.8492 130.752 39.1892C130.412 39.5293 129.951 39.7203 129.47 39.7203Z" fill="#CCCCCC"/>
<path d="M89.4196 25.8826H57.188C56.7079 25.882 56.2476 25.6907 55.9083 25.3507C55.569 25.0107 55.3784 24.5498 55.3784 24.0693C55.3784 23.5888 55.569 23.128 55.9083 22.788C56.2476 22.448 56.7079 22.2567 57.188 22.2561H89.4196C89.6577 22.2558 89.8935 22.3025 90.1136 22.3935C90.3337 22.4845 90.5337 22.618 90.7022 22.7864C90.8706 22.9548 91.0043 23.1548 91.0955 23.3749C91.1867 23.5951 91.2336 23.831 91.2336 24.0693C91.2336 24.3076 91.1867 24.5436 91.0955 24.7637C91.0043 24.9839 90.8706 25.1839 90.7022 25.3523C90.5337 25.5207 90.3337 25.6542 90.1136 25.7452C89.8935 25.8362 89.6577 25.8829 89.4196 25.8826Z" fill="#CCCCCC"/>
<path d="M107.156 25.9779H98.0018C97.5212 25.9779 97.0604 25.7869 96.7206 25.4468C96.3808 25.1068 96.1899 24.6456 96.1899 24.1647C96.1899 23.6838 96.3808 23.2226 96.7206 22.8825C97.0604 22.5425 97.5212 22.3514 98.0018 22.3514H107.156C107.637 22.3514 108.098 22.5425 108.437 22.8825C108.777 23.2226 108.968 23.6838 108.968 24.1647C108.968 24.6456 108.777 25.1068 108.437 25.4468C108.098 25.7869 107.637 25.9779 107.156 25.9779Z" fill="#CCCCCC"/>
<path d="M66.3425 39.7203H57.188C56.7079 39.7197 56.2476 39.5284 55.9083 39.1885C55.569 38.8485 55.3784 38.3876 55.3784 37.9071C55.3784 37.4266 55.569 36.9657 55.9083 36.6257C56.2476 36.2858 56.7079 36.0945 57.188 36.0939H66.3425C66.5807 36.0936 66.8165 36.1403 67.0366 36.2313C67.2567 36.3222 67.4567 36.4558 67.6251 36.6242C67.7936 36.7926 67.9273 36.9926 68.0185 37.2127C68.1097 37.4328 68.1566 37.6688 68.1566 37.9071C68.1566 38.1454 68.1097 38.3814 68.0185 38.6015C67.9273 38.8217 67.7936 39.0216 67.6251 39.19C67.4567 39.3584 67.2567 39.492 67.0366 39.583C66.8165 39.6739 66.5807 39.7206 66.3425 39.7203Z" fill="#CCCCCC"/>
<path d="M89.4193 97.1919H57.1878C56.7073 97.1919 56.2464 97.0009 55.9066 96.6608C55.5669 96.3208 55.376 95.8596 55.376 95.3787C55.376 94.8978 55.5669 94.4366 55.9066 94.0965C56.2464 93.7565 56.7073 93.5654 57.1878 93.5654H89.4193C89.6573 93.5654 89.8929 93.6123 90.1127 93.7035C90.3325 93.7946 90.5322 93.9281 90.7005 94.0965C90.8687 94.2649 91.0022 94.4648 91.0932 94.6848C91.1843 94.9048 91.2312 95.1405 91.2312 95.3787C91.2312 95.6168 91.1843 95.8526 91.0932 96.0726C91.0022 96.2925 90.8687 96.4924 90.7005 96.6608C90.5322 96.8292 90.3325 96.9627 90.1127 97.0539C89.8929 97.145 89.6573 97.1919 89.4193 97.1919Z" fill="#CCCCCC"/>
<path d="M129.47 97.1919H97.2388C96.7583 97.1919 96.2975 97.0009 95.9577 96.6608C95.6179 96.3208 95.427 95.8596 95.427 95.3787C95.427 94.8978 95.6179 94.4366 95.9577 94.0965C96.2975 93.7565 96.7583 93.5654 97.2388 93.5654H129.47C129.708 93.5654 129.944 93.6123 130.164 93.7035C130.384 93.7946 130.583 93.9281 130.752 94.0965C130.92 94.2649 131.053 94.4648 131.144 94.6848C131.235 94.9048 131.282 95.1405 131.282 95.3787C131.282 95.6168 131.235 95.8526 131.144 96.0726C131.053 96.2925 130.92 96.4924 130.752 96.6608C130.583 96.8292 130.384 96.9627 130.164 97.0539C129.944 97.145 129.708 97.1919 129.47 97.1919Z" fill="#CCCCCC"/>
<path d="M129.47 104.063H73.399C72.9185 104.063 72.4576 103.872 72.1178 103.532C71.778 103.192 71.5872 102.731 71.5872 102.25C71.5872 101.769 71.778 101.308 72.1178 100.968C72.4576 100.628 72.9185 100.437 73.399 100.437H129.47C129.709 100.436 129.944 100.483 130.164 100.574C130.385 100.665 130.585 100.799 130.753 100.967C130.921 101.135 131.055 101.335 131.146 101.555C131.238 101.776 131.284 102.012 131.284 102.25C131.284 102.488 131.238 102.724 131.146 102.944C131.055 103.164 130.921 103.364 130.753 103.533C130.585 103.701 130.385 103.835 130.164 103.926C129.944 104.017 129.709 104.063 129.47 104.063Z" fill="#CCCCCC"/>
<path d="M89.4193 90.2253H57.1878C56.7073 90.2253 56.2464 90.0343 55.9066 89.6943C55.5669 89.3542 55.376 88.893 55.376 88.4121C55.376 87.9312 55.5669 87.47 55.9066 87.13C56.2464 86.7899 56.7073 86.5989 57.1878 86.5989H89.4193C89.8999 86.5989 90.3607 86.7899 90.7005 87.13C91.0403 87.47 91.2312 87.9312 91.2312 88.4121C91.2312 88.893 91.0403 89.3542 90.7005 89.6943C90.3607 90.0343 89.8999 90.2253 89.4193 90.2253Z" fill="#CCCCCC"/>
<path d="M107.156 90.3207H98.0018C97.5212 90.3207 97.0604 90.1296 96.7206 89.7896C96.3808 89.4496 96.1899 88.9884 96.1899 88.5075C96.1899 88.0266 96.3808 87.5653 96.7206 87.2253C97.0604 86.8853 97.5212 86.6942 98.0018 86.6942H107.156C107.637 86.6942 108.098 86.8853 108.437 87.2253C108.777 87.5653 108.968 88.0266 108.968 88.5075C108.968 88.9884 108.777 89.4496 108.437 89.7896C108.098 90.1296 107.637 90.3207 107.156 90.3207Z" fill="#CCCCCC"/>
<path d="M66.3423 104.063H57.1878C56.7073 104.063 56.2464 103.872 55.9066 103.532C55.5669 103.192 55.376 102.731 55.376 102.25C55.376 101.769 55.5669 101.308 55.9066 100.968C56.2464 100.628 56.7073 100.437 57.1878 100.437H66.3423C66.5804 100.436 66.8163 100.483 67.0364 100.574C67.2564 100.665 67.4564 100.799 67.6249 100.967C67.7934 101.135 67.9271 101.335 68.0183 101.555C68.1094 101.776 68.1564 102.012 68.1564 102.25C68.1564 102.488 68.1094 102.724 68.0183 102.944C67.9271 103.164 67.7934 103.364 67.6249 103.533C67.4564 103.701 67.2564 103.835 67.0364 103.926C66.8163 104.017 66.5804 104.063 66.3423 104.063Z" fill="#CCCCCC"/>
<path d="M81.0016 77.7253C80.3176 77.7269 79.6607 77.4579 79.174 76.9769L67.058 65.0033C66.8201 64.7683 66.6313 64.4883 66.5024 64.1796C66.3735 63.8709 66.3071 63.5397 66.3071 63.2051C66.3071 62.8706 66.3735 62.5394 66.5024 62.2307C66.6313 61.922 66.8201 61.642 67.058 61.4069L79.125 49.4816C79.6277 48.9872 80.305 48.7112 81.0098 48.7134C81.7146 48.7156 82.3901 48.9959 82.8897 49.4935C83.3898 49.9951 83.6707 50.6747 83.6707 51.3833C83.6707 52.0918 83.3899 52.7715 82.8898 53.2731L73.923 62.247C73.6436 62.5272 73.4867 62.9069 73.4867 63.3028C73.4867 63.6986 73.6436 64.0783 73.923 64.3586L82.8412 73.2837C83.2053 73.6475 83.4534 74.1112 83.554 74.6162C83.6546 75.1212 83.6031 75.6447 83.4061 76.1204C83.2091 76.5961 82.8754 77.0025 82.4474 77.2882C82.0193 77.574 81.5162 77.7261 81.0016 77.7253Z" fill="#1B3663"/>
<path d="M100.308 77.7254C99.793 77.7261 99.2898 77.574 98.8618 77.2883C98.4337 77.0025 98.1001 76.5961 97.9031 76.1204C97.7061 75.6447 97.6546 75.1212 97.7552 74.6162C97.8557 74.1112 98.1038 73.6475 98.468 73.2837L107.386 64.3586C107.666 64.0783 107.822 63.6986 107.822 63.3028C107.822 62.9069 107.666 62.5272 107.386 62.247L98.4194 53.2731C98.1714 53.0249 97.9747 52.7303 97.8405 52.406C97.7063 52.0818 97.6372 51.7342 97.6372 51.3833C97.6372 51.0323 97.7063 50.6848 97.8405 50.3605C97.9747 50.0363 98.1714 49.7417 98.4194 49.4935C98.919 48.9959 99.5945 48.7156 100.299 48.7134C101.004 48.7112 101.681 48.9872 102.184 49.4816L114.251 61.4069C114.489 61.642 114.678 61.922 114.807 62.2307C114.936 62.5394 115.002 62.8706 115.002 63.2051C115.002 63.5397 114.936 63.8709 114.807 64.1796C114.678 64.4883 114.489 64.7683 114.251 65.0033L102.135 76.977C101.648 77.4579 100.992 77.7269 100.308 77.7254Z" fill="#1B3663"/>
</svg>
